<svg      width="320"
      height="320" viewBox="0 0 320 320" fill="none" xmlns="http://www.w3.org/2000/svg">
<path d="M274.202 178.573L268.41 175.207C268.41 175.207 267.027 162.771 268 153.146C269.37 139.623 278.157 123.367 288.57 127.226C298.983 131.079 283.738 144.813 280.32 156.275C276.896 167.738 274.202 178.573 274.202 178.573Z" fill="#A8D29F"/>
<path opacity="0.15" d="M274.202 178.573L268.41 175.207C268.41 175.207 267.027 162.771 268 153.146C269.37 139.623 278.157 123.367 288.57 127.226C298.983 131.079 283.738 144.813 280.32 156.275C276.896 167.738 274.202 178.573 274.202 178.573Z" fill="black"/>
<path d="M271.149 177.152C271.155 177.152 271.155 177.152 271.162 177.152C271.354 177.146 271.507 176.986 271.501 176.788C270.573 146.727 285.581 131.648 285.735 131.501C285.875 131.367 285.875 131.143 285.741 131.002C285.607 130.861 285.383 130.861 285.242 130.996C285.088 131.149 269.863 146.439 270.797 176.807C270.81 177.005 270.963 177.152 271.149 177.152Z" fill="white"/>
<path d="M277.843 180.678L273.722 178.278C273.722 178.278 273.312 169.158 276.986 158.605C280.755 147.782 289.984 142.925 294.522 144.512C299.06 146.099 299.604 149.286 297.383 152.666C295.155 156.038 280.986 164.083 277.843 180.678Z" fill="#A8D29F"/>
<path d="M275.668 179.763C275.866 179.763 276.019 179.603 276.019 179.411C275.994 160.403 293.882 147.616 294.061 147.488C294.221 147.379 294.26 147.155 294.144 147.002C294.036 146.842 293.818 146.803 293.652 146.918C293.466 147.046 275.284 160.051 275.309 179.418C275.316 179.603 275.476 179.763 275.668 179.763Z" fill="white"/>
<path d="M54.9697 174.054L63.2065 169.306C63.2065 169.306 65.8497 156.454 64.0705 143.565C61.0497 121.594 49.1201 118.31 44.5569 119.866C40.0001 121.421 38.6625 126.714 46.1633 137.574C50.5921 143.974 56.0129 157.312 54.9697 174.054Z" fill="#A8D29F"/>
<g opacity="0.15">
<path opacity="0.15" d="M54.9697 174.054L63.2065 169.306C63.2065 169.306 65.8497 156.454 64.0705 143.565C61.0497 121.594 49.1201 118.31 44.5569 119.866C40.0001 121.421 38.6625 126.714 46.1633 137.574C50.5921 143.974 56.0129 157.312 54.9697 174.054Z" fill="#A8D29F"/>
</g>
<path d="M60.1409 166.874C60.1217 166.874 60.1025 166.874 60.0833 166.867C59.8657 166.835 59.7121 166.63 59.7377 166.413C62.1313 149.498 55.3921 130.931 47.7697 123.43C47.6097 123.277 47.6097 123.021 47.7633 122.861C47.9169 122.701 48.1729 122.701 48.3329 122.854C56.1025 130.496 62.9761 149.363 60.5441 166.528C60.5121 166.726 60.3393 166.874 60.1409 166.874Z" fill="white"/>
<path d="M39.7057 182.81C38.7841 183.277 36.3457 181.178 35.6673 180.666C34.5025 179.789 33.5873 178.592 33.0049 177.261C32.3329 175.712 32.2241 174.086 32.5505 172.429C32.7169 171.571 33.0049 170.739 33.2929 169.914C33.5745 169.101 33.8561 168.288 34.1377 167.475C34.4129 166.675 34.6945 165.843 34.6369 164.998C34.5089 163.296 33.0689 162.029 31.7633 160.934C30.3105 159.725 28.8193 158.144 28.9345 156.109C29.0241 154.534 29.9201 153.12 30.9569 151.936C32.0001 150.752 33.2097 149.728 34.1633 148.467C34.8481 147.565 35.3985 146.49 35.3601 145.357C35.3345 144.653 35.0785 143.974 34.7777 143.341C34.1313 141.978 33.2417 140.71 32.8257 139.258C32.4033 137.805 32.5697 136.038 33.7409 135.078C34.7009 134.291 36.0641 134.246 37.2929 134.394C38.4321 134.528 39.5201 135.104 40.4929 135.718C43.6353 137.69 45.2737 141.619 48.6337 143.187C49.9265 143.795 51.3729 143.987 52.7361 144.422C54.0993 144.864 55.4689 145.638 56.0385 146.95C57.2929 149.83 54.3425 152.576 56.4289 155.379C57.0753 156.243 57.9201 156.947 58.6113 157.779C60.5505 160.128 61.4145 162.592 60.8641 166.406C60.3137 170.214 57.8113 172.429 56.5313 173.165C56.5249 173.158 39.8465 182.739 39.7057 182.81Z" fill="#8EC181"/>
<path d="M48.6209 178.195C48.6145 178.195 48.6081 178.195 48.6081 178.195C48.3777 178.176 48.2177 177.977 48.2369 177.753C49.7601 161.792 43.1681 143.731 37.9585 138.31C37.8049 138.15 37.8113 137.894 37.9713 137.741C38.1313 137.587 38.3873 137.594 38.5409 137.754C43.8529 143.283 50.5793 161.651 49.0369 177.837C49.0241 178.048 48.8321 178.208 48.6209 178.195Z" fill="white"/>
<path d="M47.0976 158.509C47.0592 158.509 47.0209 158.496 46.9825 158.483C41.9265 156.621 35.5392 155.994 35.4752 155.994C35.2512 155.974 35.0912 155.776 35.1104 155.552C35.1296 155.328 35.3088 155.162 35.552 155.187C35.616 155.194 42.1056 155.827 47.264 157.728C47.4752 157.805 47.5776 158.035 47.5008 158.246C47.4304 158.413 47.264 158.515 47.0976 158.509Z" fill="white"/>
<path d="M302.716 224.375C302.85 180.478 239.298 144.699 160.77 144.459C82.2409 144.22 18.4722 179.611 18.3382 223.507C18.2043 267.404 81.7558 303.183 160.285 303.423C238.813 303.662 302.582 268.271 302.716 224.375Z" fill="#707070"/>
<path d="M222.931 191.021L262.118 168.557C261.824 168.39 261.536 168.218 261.241 168.051C259.859 167.27 258.445 166.515 257.017 165.779L217.933 188.186C185.107 170.906 133.376 171.11 101.267 188.934C84.8318 198.054 75.7566 210.4 75.7182 223.693C75.6798 236.173 83.6095 247.859 98.1311 256.87L58.9438 279.334C59.2382 279.501 59.5262 279.674 59.8206 279.84C61.203 280.621 62.6174 281.376 64.0446 282.112L103.129 259.706C119.193 268.16 139.776 272.442 160.384 272.499C181.888 272.563 203.398 268.058 219.795 258.957C236.23 249.837 245.305 237.491 245.344 224.198C245.376 211.725 237.446 200.032 222.931 191.021ZM81.1967 223.699C81.2287 212.48 89.2991 201.837 103.923 193.722C119.584 185.03 140.128 180.723 160.659 180.787C179.033 180.845 197.382 184.41 212.224 191.45L103.59 253.728C89.1135 245.536 81.1647 234.88 81.1967 223.699ZM217.126 254.163C187.456 270.631 140.249 271.341 108.825 256.435L217.459 194.157C231.936 202.349 239.885 213.011 239.853 224.186C239.821 235.398 231.75 246.048 217.126 254.163Z" fill="#E0E0E0"/>
<path opacity="0.1" d="M245.66 240.48C245.701 227.066 226.9 216.134 203.667 216.064C180.433 215.993 161.566 226.809 161.525 240.223C161.484 253.637 180.285 264.569 203.518 264.64C226.751 264.71 245.619 253.894 245.66 240.48Z" fill="black"/>
<path opacity="0.1" d="M122.242 217.368C122.26 211.473 113.996 206.668 103.785 206.637C93.5734 206.606 85.2808 211.36 85.2628 217.255C85.2448 223.151 93.5083 227.956 103.72 227.987C113.931 228.018 122.224 223.264 122.242 217.368Z" fill="black"/>
<path d="M151.718 124.352L147.808 165.203C143.29 164.032 140.147 163.917 134.88 164.461C129.229 165.043 118.778 168.16 115.168 167.942L114.022 167.846L110.4 167.066C110.4 167.066 103.469 177.312 115.923 177.741C125.114 178.694 136.589 181.082 145.92 182.099C164.358 184.115 167.11 183.648 169.587 177.51C171.392 173.043 172.614 169.158 174.854 158.323C177.267 146.669 176.885 135.482 177 128L151.718 124.352Z" fill="#B16668"/>
<path d="M177.453 128.531L151.718 124.352C151.718 124.352 147.558 153.363 146.566 166.656C148.154 170.112 154.906 175.904 159.84 177.261C164.442 178.528 170.534 177.523 170.534 177.523C170.534 177.523 177.165 161.901 178.176 152.352C179.501 139.757 177.453 128.531 177.453 128.531Z" fill="#27DEBF"/>
<path opacity="0.4" d="M177.453 128.531L151.718 124.352C151.718 124.352 147.558 153.363 146.566 166.656C148.154 170.112 154.906 175.904 159.84 177.261C164.442 178.528 170.534 177.523 170.534 177.523C170.534 177.523 177.165 161.901 178.176 152.352C179.501 139.757 177.453 128.531 177.453 128.531Z" fill="black"/>
<path d="M157.523 174.624C154.157 172.877 148.832 167.93 146.803 163.795C146.714 164.807 146.63 165.767 146.566 166.65C148.154 170.106 154.906 175.898 159.84 177.255C164.442 178.522 170.534 177.517 170.534 177.517L171.341 175.539C169.037 176.327 161.869 176.883 157.523 174.624Z" fill="#37474F"/>
<path d="M105.299 164.935C104.077 164.064 103.117 163.693 101.882 163.648C100.653 163.603 97.5743 165.095 96.6719 168.122C95.7695 171.149 96.1471 174.503 95.6991 176.717C95.2511 178.931 93.1007 182.823 91.8975 184.794C90.7007 186.765 90.1183 191.475 92.1727 195.085C93.4911 197.402 96.0575 197.984 97.7023 198.048L105.299 164.935Z" fill="#37474F"/>
<path d="M114.381 173.639C114.189 173.607 113.997 173.581 113.805 173.562C112.621 173.434 111.43 173.408 110.24 173.485C112.224 172.634 113.69 170.675 113.939 168.538C113.952 168.423 114.016 167.853 114.016 167.853L115.162 167.949C115.283 167.527 115.014 167.072 114.643 166.835C114.272 166.599 113.824 166.535 113.389 166.471C111.654 166.208 109.933 165.856 108.23 165.415C106.906 165.075 105.453 164.423 104.077 164.378C102.266 164.314 99.7247 165.927 98.5855 168.531C97.5935 170.797 97.6448 173.997 97.4208 176.384C97.2928 177.722 96.7104 178.675 96.224 179.879C95.6608 181.255 93.9775 184.173 93.5295 185.594C93.1711 186.733 93.0431 187.943 93.0367 189.139C93.0239 190.451 93.152 191.783 93.5936 193.018C94.2784 194.944 95.968 197.491 97.9136 198.138C100.083 197.991 102.496 196.762 103.123 193.978C103.584 191.93 104.115 189.511 104.666 188.122C105.51 185.997 106.81 183.866 107.661 182.733C107.795 182.554 107.923 182.355 108.064 182.195C108.205 182.029 108.352 181.869 108.493 181.709C109.549 180.563 110.989 179.949 112.301 179.162C113.51 178.432 115.174 178.759 116.486 178.791C116.71 178.797 116.973 178.784 117.107 178.605C117.203 178.477 117.197 178.304 117.19 178.144C117.158 177.389 117.12 176.627 116.909 175.904C116.698 175.181 116.282 174.49 115.642 174.087C115.258 173.837 114.829 173.715 114.381 173.639Z" fill="#27DEBF"/>
<path opacity="0.4" d="M114.381 173.639C114.189 173.607 113.997 173.581 113.805 173.562C112.621 173.434 111.43 173.408 110.24 173.485C112.224 172.634 113.69 170.675 113.939 168.538C113.952 168.423 114.016 167.853 114.016 167.853L115.162 167.949C115.283 167.527 115.014 167.072 114.643 166.835C114.272 166.599 113.824 166.535 113.389 166.471C111.654 166.208 109.933 165.856 108.23 165.415C106.906 165.075 105.453 164.423 104.077 164.378C102.266 164.314 99.7247 165.927 98.5855 168.531C97.5935 170.797 97.6448 173.997 97.4208 176.384C97.2928 177.722 96.7104 178.675 96.224 179.879C95.6608 181.255 93.9775 184.173 93.5295 185.594C93.1711 186.733 93.0431 187.943 93.0367 189.139C93.0239 190.451 93.152 191.783 93.5936 193.018C94.2784 194.944 95.968 197.491 97.9136 198.138C100.083 197.991 102.496 196.762 103.123 193.978C103.584 191.93 104.115 189.511 104.666 188.122C105.51 185.997 106.81 183.866 107.661 182.733C107.795 182.554 107.923 182.355 108.064 182.195C108.205 182.029 108.352 181.869 108.493 181.709C109.549 180.563 110.989 179.949 112.301 179.162C113.51 178.432 115.174 178.759 116.486 178.791C116.71 178.797 116.973 178.784 117.107 178.605C117.203 178.477 117.197 178.304 117.19 178.144C117.158 177.389 117.12 176.627 116.909 175.904C116.698 175.181 116.282 174.49 115.642 174.087C115.258 173.837 114.829 173.715 114.381 173.639Z" fill="black"/>
<path d="M93.2798 191.956C94.1502 194.074 95.6862 193.274 96.5886 193.78C97.491 194.285 98.7006 195.68 99.4558 196.711C100.211 197.741 98.3806 198.637 96.3198 197.888C94.2654 197.133 92.6142 194.522 93.2798 191.956Z" fill="#37474F"/>
<path d="M103.936 190.509C102.637 188.25 100.301 187.136 98.9183 186.835C98.5023 186.746 98.0927 187.008 98.0031 187.424C97.9135 187.84 98.1759 188.25 98.5919 188.339C98.6367 188.346 103.328 189.67 103.418 192.672C103.853 192.051 104.115 191.955 103.936 190.509Z" fill="white"/>
<path d="M100.339 182.598C99.923 182.509 99.5134 182.771 99.4238 183.187C99.3342 183.603 99.5966 184.013 100.013 184.102C100.051 184.109 104.192 185.222 104.768 187.853C105.261 187.578 105.472 186.835 105.433 186.4C104.153 184.045 101.753 182.906 100.339 182.598Z" fill="white"/>
<path d="M102.054 178.803C101.638 178.714 101.229 178.976 101.139 179.392C101.05 179.808 101.312 180.218 101.728 180.307C101.766 180.314 105.53 181.171 106.33 184.755C106.848 184.288 107.213 183.725 107.386 183.098C106.195 180.41 103.558 179.13 102.054 178.803Z" fill="white"/>
<path d="M110.022 180.467C109.146 177.005 105.997 175.411 104.294 175.04C103.878 174.95 103.469 175.213 103.379 175.629C103.29 176.045 103.552 176.454 103.968 176.544C104.013 176.55 108.128 177.498 108.659 181.53C109.171 181.376 109.645 181.056 110.022 180.467Z" fill="white"/>
<path d="M168.793 71.3918C176.934 72.6718 182.214 75.123 182.342 84.7934C182.432 91.603 181.779 100.928 181.734 114.201C189.318 118.048 196.998 121.709 204.729 125.241C205.741 125.702 206.669 126.061 207.731 126.342C208.979 126.669 210.24 127.59 211.321 128.281C213.664 129.773 215.821 131.558 217.721 133.593C218.361 134.278 218.982 135.008 219.366 135.859C219.75 136.717 219.878 137.728 219.52 138.592C219.206 139.353 218.541 139.936 217.798 140.288C217.049 140.64 216.224 140.774 215.398 140.838C212.429 141.069 209.446 140.358 206.662 139.302C203.616 138.144 200.896 136.281 197.894 135.123C195.411 134.163 193.453 133.504 189.971 132.365C186.182 131.123 182.457 129.881 179.091 128.825C176.192 127.917 170.957 126.093 168.339 124.518C163.673 121.709 164.781 118.163 165.613 109.133C166.771 96.531 168.518 82.6878 168.793 71.3918Z" fill="#B16668"/>
<path d="M186.349 160.224C180 152.141 175.033 145.99 169.203 137.926C172.678 133.856 174.861 130.054 178.336 125.926C166.233 124.026 154.169 122.554 142.054 120.365C140.793 128.326 138.976 126.938 138.989 137.382C138.995 144.678 150.112 156.525 158.227 163.846C163.392 168.499 169.606 173.92 176.307 178.387C176.211 181.139 176.435 186.17 178.553 192.192C180.32 197.222 183.11 201.939 185.721 206.56C188.185 210.925 190.72 215.245 193.165 219.616C194.272 221.594 195.36 223.584 196.384 225.606C196.915 226.656 197.376 228.141 198.054 229.062C199.257 230.694 201.261 231.866 203.264 231.584C203.827 231.507 204.371 231.315 204.889 231.085C206.797 230.24 208.723 227.981 208.173 225.971C207.699 224.25 206.861 221.914 206.374 220.192C202.995 208.205 198.899 190.886 196.537 180.563C193.798 168.582 192.121 167.565 186.349 160.224Z" fill="#B16668"/>
<path d="M165.197 175.706C167.648 175.712 170.79 175.238 173.849 174.246C175.033 173.862 169.862 166.669 170.976 166.138C172.153 165.568 177.709 173.101 180.601 170.912C185.709 167.046 187.379 164.429 189.235 160.864C182.105 152.07 175.859 143.674 172.819 139.738C173.913 137.939 176.249 135.091 177.453 128.531C165.357 126.72 142.553 125.126 133.209 124.333C133.574 128.826 133.427 135.245 134.713 139.622C136.339 145.158 137.728 146.829 143.744 154.048C148.249 159.456 158.829 169.632 165.197 175.706Z" fill="#27DEBF"/>
<path opacity="0.2" d="M165.197 175.706C167.648 175.712 170.79 175.238 173.849 174.246C175.033 173.862 169.862 166.669 170.976 166.138C172.153 165.568 177.709 173.101 180.601 170.912C185.709 167.046 187.379 164.429 189.235 160.864C182.105 152.07 175.859 143.674 172.819 139.738C173.913 137.939 176.249 135.091 177.453 128.531C165.357 126.72 142.553 125.126 133.209 124.333C133.574 128.826 133.427 135.245 134.713 139.622C136.339 145.158 137.728 146.829 143.744 154.048C148.249 159.456 158.829 169.632 165.197 175.706Z" fill="#E4163A"/>
<path d="M188.262 159.654C186.861 163.014 182.656 167.731 180.934 169.037C179.021 170.489 177.754 169.12 175.386 167.334C173.018 165.549 170.886 163.565 169.696 164.397C168.506 165.229 169.504 167.225 170.413 169.235C171.322 171.245 172.877 173.062 170.355 173.568C168.384 173.965 165.043 174.17 163.674 174.246C164.205 174.752 164.723 175.245 165.203 175.712C167.654 175.718 170.797 175.245 173.856 174.253C175.04 173.869 169.869 166.675 170.982 166.144C172.16 165.574 177.715 173.107 180.608 170.918C185.715 167.053 187.386 164.435 189.242 160.87C188.909 160.461 188.589 160.057 188.262 159.654Z" fill="#455A64"/>
<path d="M196.954 238.234C196.781 239.27 196.877 240.589 197.126 241.683C197.92 242.797 198.842 243.194 200.749 244C202.63 244.8 204.954 244.806 207.558 247.373C209.126 248.922 212.134 250.925 215.405 251.706C218.528 252.448 223.962 252.378 227.008 251.277C230.054 250.176 231.027 249.254 231.098 246.368C220.224 242.182 198.848 226.784 196.954 238.234Z" fill="#37474F"/>
<path d="M230.713 244.006C228.838 240.013 223.725 238.893 220.045 236.794C218.374 235.84 216.787 234.726 215.283 233.498C215.078 233.331 214.873 233.165 214.681 232.986C214.649 232.954 214.611 232.922 214.579 232.896C210.413 229.101 208.819 223.898 208.185 222.342C207.571 220.832 204.896 223.194 202.688 224.416C200.608 225.568 200.678 227.686 200.851 228.685C200.665 228.07 200.224 227.123 199.232 226.829C197.638 226.362 196.819 226.483 196.819 226.483L196.153 225.171C194.688 226.566 196.307 228.672 196.787 231.194C197.261 233.715 196.115 237.19 197.318 239.059H197.325C197.401 239.219 197.478 239.373 197.581 239.507C199.181 241.67 201.389 241.702 204.365 242.995C206.841 244.07 209.017 246.202 211.437 247.834C214.88 250.15 219.693 250.438 223.373 249.939C227.04 249.434 232.589 248 230.713 244.006Z" fill="#27DEBF"/>
<path opacity="0.4" d="M230.713 244.006C228.838 240.013 223.725 238.893 220.045 236.794C218.374 235.84 216.787 234.726 215.283 233.498C215.078 233.331 214.873 233.165 214.681 232.986C214.649 232.954 214.611 232.922 214.579 232.896C210.413 229.101 208.819 223.898 208.185 222.342C207.571 220.832 204.896 223.194 202.688 224.416C200.608 225.568 200.678 227.686 200.851 228.685C200.665 228.07 200.224 227.123 199.232 226.829C197.638 226.362 196.819 226.483 196.819 226.483L196.153 225.171C194.688 226.566 196.307 228.672 196.787 231.194C197.261 233.715 196.115 237.19 197.318 239.059H197.325C197.401 239.219 197.478 239.373 197.581 239.507C199.181 241.67 201.389 241.702 204.365 242.995C206.841 244.07 209.017 246.202 211.437 247.834C214.88 250.15 219.693 250.438 223.373 249.939C227.04 249.434 232.589 248 230.713 244.006Z" fill="black"/>
<path d="M220.332 250.144C223.36 249.933 222.528 248.122 225.312 246.688C228.089 245.255 230.688 244.205 231.091 245.415C231.494 246.624 231.334 248.858 226.502 250.061C221.542 251.29 219.782 250.477 220.332 250.144Z" fill="#37474F"/>
<path d="M216.384 244.346C216.314 244.346 216.243 244.333 216.173 244.314C215.77 244.192 215.533 243.776 215.648 243.373C215.68 243.258 216.486 240.557 220.301 238.778C221.101 238.4 221.862 238.17 222.547 238.035C224.058 237.734 225.747 238.88 225.978 239.648C225.92 239.642 225.856 239.629 225.798 239.603C225.715 239.571 223.699 238.886 220.954 240.173C217.818 241.639 217.158 243.719 217.126 243.802C217.018 244.128 216.71 244.346 216.384 244.346Z" fill="white"/>
<path d="M211.673 241.728C211.603 241.728 211.533 241.722 211.462 241.696C211.053 241.581 210.816 241.152 210.937 240.749C210.969 240.64 211.731 238.106 215.545 236.32C216.461 235.891 217.28 235.635 217.984 235.494C218.95 235.251 220.768 236.698 220.307 236.922C219.821 236.826 218.381 236.691 216.192 237.709C213.056 239.175 212.416 241.146 212.416 241.165C212.313 241.511 212.006 241.728 211.673 241.728Z" fill="white"/>
<path d="M207.661 238.541C207.597 238.541 207.533 238.534 207.462 238.515C207.078 238.406 206.854 238.003 206.963 237.619C206.989 237.517 207.712 235.123 211.302 233.446C212.448 232.915 213.427 232.666 214.221 232.563C215.629 232.39 216.064 233.786 215.961 234.054C215.955 234.054 214.688 233.344 211.91 234.758C209.005 236.237 208.352 237.997 208.345 238.016C208.269 238.33 207.981 238.541 207.661 238.541Z" fill="white"/>
<path d="M204.013 235.162C203.904 235.162 203.789 235.136 203.68 235.078C203.328 234.893 203.187 234.458 203.373 234.106C203.398 234.055 205.945 229.248 211.481 229.242C211.904 229.242 212.64 230.08 212.614 230.765C207.187 230.061 204.755 234.586 204.653 234.778C204.531 235.021 204.275 235.162 204.013 235.162Z" fill="white"/>
<path d="M153.504 69.4656C153.504 69.4656 148.186 68.0128 143.59 69.3568C140.96 70.1312 141.011 73.536 139.162 77.0303C138.118 79.0015 135.29 83.9104 133.472 96.4224C131.859 107.526 132.198 119.341 133.389 132.416C148.198 142.138 173.914 135.539 177.446 128.525C176.467 125.37 175.872 119.718 176.019 110.093C176.243 95.6992 182.138 73.1775 168.544 71.3535L153.504 69.4656Z" fill="#F9DDBF"/>
<path d="M147.066 68.8064C145.926 68.8576 144.742 69.024 143.597 69.3568C140.966 70.1312 141.018 73.536 139.168 77.0304C138.304 78.6624 136.224 82.304 134.502 90.5856C134.867 90.7712 135.283 90.9056 135.782 90.9568C144.698 91.8656 148.339 82.9312 149.024 78.528C149.702 74.1632 148.966 69.6128 147.066 68.8064Z" fill="#37474F"/>
<path d="M138.637 89.1206L136.877 89.895C136.877 89.895 133.267 113.223 136.698 134.234C137.363 134.541 138.048 134.823 138.739 135.079C134.842 113.671 138.637 89.1206 138.637 89.1206Z" fill="#37474F"/>
<path d="M142.387 88.979L140.627 89.7534C140.627 89.7534 136.825 114.336 140.736 135.757C141.401 135.955 142.067 136.134 142.745 136.294C138.425 114.573 142.387 88.979 142.387 88.979Z" fill="#37474F"/>
<path d="M153.83 70.2271C152.614 70.3167 152.499 70.8414 153.818 73.5742C155.136 76.307 159.424 82.3294 164.973 81.5038C169.715 80.7934 169.05 76.6142 168.154 74.0606C167.942 73.4526 167.578 71.6414 166.086 71.3854L160.013 70.899L153.83 70.2271Z" fill="#37474F"/>
<path d="M152.531 104.512C152.454 104.41 152.435 104.295 152.474 104.16C152.512 104.026 152.589 103.911 152.704 103.821L156.883 100.519C156.986 100.435 157.114 100.346 157.261 100.237C157.408 100.128 157.574 100.064 157.754 100.051L159.981 99.8593C160.115 99.8465 160.224 99.8849 160.314 99.9745C160.403 100.064 160.442 100.173 160.429 100.301L159.411 111.898C159.398 112.032 159.341 112.147 159.232 112.25C159.13 112.352 159.008 112.41 158.874 112.423L156.486 112.634C156.352 112.647 156.243 112.608 156.154 112.519C156.064 112.435 156.026 112.32 156.038 112.192L156.723 104.346L154.413 106.151C154.298 106.247 154.17 106.285 154.042 106.279C153.907 106.272 153.805 106.221 153.728 106.119L152.531 104.512Z" fill="#37474F"/>
<path d="M167.962 98.9761C168.871 98.8993 169.645 98.9569 170.279 99.1681C170.912 99.3729 171.424 99.6801 171.815 100.083C172.205 100.486 172.487 100.979 172.647 101.549C172.807 102.125 172.877 102.733 172.858 103.373C172.839 103.885 172.8 104.422 172.755 104.986C172.704 105.549 172.647 106.074 172.583 106.566C172.487 107.219 172.307 107.846 172.045 108.461C171.783 109.075 171.411 109.619 170.944 110.099C170.477 110.579 169.901 110.982 169.223 111.302C168.544 111.622 167.744 111.827 166.835 111.904C165.927 111.981 165.152 111.923 164.519 111.712C163.885 111.507 163.373 111.2 162.983 110.797C162.592 110.394 162.311 109.901 162.151 109.331C161.991 108.755 161.92 108.147 161.939 107.507C161.959 107.021 161.991 106.496 162.042 105.933C162.093 105.37 162.151 104.832 162.221 104.314C162.317 103.667 162.49 103.034 162.759 102.426C163.021 101.811 163.392 101.267 163.859 100.787C164.327 100.307 164.903 99.9041 165.581 99.5841C166.253 99.2577 167.047 99.0529 167.962 98.9761ZM169.216 106.778C169.351 105.754 169.44 104.749 169.479 103.763C169.479 103.469 169.459 103.194 169.415 102.95C169.37 102.707 169.28 102.496 169.152 102.323C169.024 102.15 168.839 102.022 168.608 101.933C168.371 101.85 168.077 101.818 167.712 101.85C167.347 101.882 167.04 101.965 166.784 102.093C166.528 102.221 166.323 102.387 166.163 102.586C166.003 102.784 165.875 103.014 165.779 103.27C165.683 103.526 165.619 103.808 165.581 104.109C165.434 105.107 165.344 106.112 165.319 107.123C165.306 107.424 165.319 107.693 165.363 107.942C165.408 108.186 165.498 108.397 165.632 108.57C165.767 108.742 165.952 108.87 166.189 108.96C166.419 109.043 166.72 109.075 167.085 109.043C167.45 109.011 167.757 108.928 168.013 108.8C168.263 108.672 168.474 108.506 168.647 108.307C168.813 108.109 168.941 107.878 169.031 107.622C169.114 107.354 169.178 107.078 169.216 106.778Z" fill="#37474F"/>
<path d="M150.764 60.5824C150.688 60.0512 150.7 59.4944 150.771 58.9568C149.932 58.592 149.318 57.7792 149.126 56.8832C148.934 55.9872 149.139 55.0272 149.619 54.2464C150.176 53.3312 150.95 52.8 151.756 52.1664C151.987 51.9872 152.281 51.5456 152.108 51.2384C151.846 50.7648 150.95 50.912 150.528 50.7584C149.875 50.5216 149.299 50.0672 148.896 49.504C148.441 48.864 148.211 48.0832 148.16 47.296C148.102 46.496 148.243 45.6384 148.697 44.9664C148.902 44.6656 149.152 44.448 149.427 44.2112C149.548 44.1088 150.201 43.68 150.515 43.6096C149.811 43.0784 149.004 42.2912 148.736 41.4336C148.435 40.4864 148.339 39.4624 148.742 38.5216C149.139 37.6064 149.715 36.9664 150.803 36.4736C151.891 35.9744 153.632 36.1792 153.779 36.512C152.889 34.5472 153.292 32.0768 154.739 30.4768C155.641 29.4848 156.915 28.8576 158.24 28.6784C158.617 28.6272 160.582 28.5632 161.587 29.2928C161.683 28.32 162.7 27.3152 163.731 26.8864C164.761 26.4576 165.939 26.4704 167.001 26.8032C168.352 27.2256 169.683 28.16 171.052 27.808C171.296 27.744 172.524 27.3728 172.524 27.3728C172.819 27.4368 172.288 28.0384 172.345 28.3328C172.46 28.896 172.172 29.5488 171.91 30.0288C170.649 32.32 167.84 33.2736 165.241 33.5424C163.955 33.6768 162.649 33.6896 161.376 33.952C160.108 34.2144 158.841 34.752 158.009 35.744C157.254 36.64 156.928 37.8112 156.659 38.9504C155.782 42.7328 155.404 46.6368 155.545 50.5216C155.66 53.7024 156.128 56.9792 155.36 60.1216C155.116 61.1328 155.622 63.1168 154.4 63.2448C153.081 63.3792 151.641 62.8672 151.052 61.5936C150.905 61.28 150.816 60.9344 150.764 60.5824Z" fill="#263238"/>
<path d="M158.432 44.1407C157.702 51.1871 162.598 57.4655 169.363 58.1631C176.128 58.8607 181.894 53.6767 182.924 46.6687C184.748 34.2655 178.758 33.3439 171.993 32.6463C165.228 31.9487 159.161 37.0943 158.432 44.1407Z" fill="#263238"/>
<path d="M151.539 38.4319C153.203 36.3455 154.515 36.8191 154.515 36.8191L154.336 47.7695L155.814 48.2367L154.432 62.8991C154.432 62.8991 153.388 62.3167 152.787 60.7295C152.384 59.6543 151.942 53.3503 151.712 49.5679C151.718 49.5679 150.118 40.2239 151.539 38.4319Z" fill="#263238"/>
<path d="M155.353 50.6495C154.598 51.0207 153.734 49.4911 152.953 48.4479C152.179 47.4047 149.453 45.8047 147.705 48.7871C145.926 51.8271 148.198 56.3135 150.374 57.2799C154.118 58.9439 154.969 56.4159 154.969 56.4159L153.76 71.0079C159.43 84.6783 172.051 82.6495 166.406 71.9231L166.854 67.4879C166.854 67.4879 170.31 68.4031 172.051 68.3071C174.95 68.1407 176.985 65.9839 178.182 62.8607C180.102 57.8431 181.062 53.7279 180.928 43.4559C180.787 32.1983 168.371 30.7967 161.209 34.5023C154.048 38.2207 155.353 50.6495 155.353 50.6495Z" fill="#B16668"/>
<path d="M175.302 42.0991C169.523 41.6511 166.073 40.0703 161.369 39.0079C161.049 38.9375 160.71 38.8671 160.403 38.9695C159.302 39.3407 158.739 42.5919 158.457 43.5135C157.504 46.6367 156.428 51.9871 155.232 51.8847C154.873 51.8527 153.76 49.3695 152.96 48.4415C151.859 47.1551 154.515 36.8255 154.515 36.8127C154.604 36.4543 154.348 35.7631 154.374 35.3535C154.438 34.3359 154.841 33.5935 155.398 32.7743C156.46 31.2063 158.233 30.2271 160.025 29.7279C163.385 28.7999 166.912 29.3183 170.272 28.2111C171.616 27.7695 172.896 27.1103 174.291 26.8799C175.686 26.6495 177.292 26.9503 178.137 28.0895C178.694 28.8383 178.828 29.8175 178.886 30.7519C179.648 29.9391 180.46 29.1007 181.516 28.7551C183.475 28.1151 185.683 29.5231 186.457 31.4367C187.232 33.3439 186.86 35.5519 186.06 37.4527C185.798 38.0735 185.491 38.6815 185.075 39.2127C182.982 41.8943 178.425 42.3359 175.302 42.0991Z" fill="#263238"/>
<path d="M153.472 37.2478L149.427 34.4062C150.169 33.1902 151.673 32.8382 152.787 33.6254C153.913 34.4126 154.214 36.0318 153.472 37.2478Z" fill="#263238"/>
<path d="M166.86 67.4942C166.86 67.4942 160.633 65.5038 158.54 64.0446C157.139 63.0654 156.057 61.5102 155.795 60.5566C155.795 60.5566 156.006 62.5662 157.158 64.4734C158.559 66.8094 166.681 69.2542 166.681 69.2542L166.86 67.4942Z" fill="#9A4A4D"/>
<path d="M167.097 50.1889C167.02 50.9505 166.387 51.5073 165.683 51.4305C164.979 51.3537 164.473 50.6753 164.55 49.9137C164.627 49.1521 165.26 48.5953 165.964 48.6721C166.668 48.7489 167.18 49.4273 167.097 50.1889Z" fill="#263238"/>
<path d="M166.016 45.1329L163.129 46.4193C162.809 45.5617 163.2 44.5761 164 44.2241C164.793 43.8657 165.696 44.2753 166.016 45.1329Z" fill="#263238"/>
<path d="M167.104 59.4561L169.894 60.8961C169.517 61.7345 168.582 62.0929 167.814 61.6961C167.046 61.2993 166.726 60.2945 167.104 59.4561Z" fill="#9A4A4D"/>
<path d="M178.886 48.1537L176.607 45.9009C177.19 45.2097 178.175 45.1585 178.803 45.7793C179.43 46.4001 179.468 47.4625 178.886 48.1537Z" fill="#263238"/>
<path d="M177.74 50.9057C177.664 51.6673 177.03 52.2241 176.326 52.1473C175.622 52.0705 175.116 51.3921 175.193 50.6305C175.27 49.8689 175.904 49.3121 176.608 49.3889C177.312 49.4593 177.824 50.1377 177.74 50.9057Z" fill="#263238"/>
<path d="M171.027 49.1328L170.348 57.2032L175.027 56.6208L171.027 49.1328Z" fill="#9A4A4D"/>
<path d="M122.707 137.722C121.216 135.04 120.582 132.627 120.109 130.304C120.608 130.886 121.395 132.454 123.258 133.357C124.269 133.85 126.093 133.939 126.445 133.03C126.797 132.122 124.966 131.2 124.39 130.15C123.661 128.806 120.941 124.8 119.629 123.264C119.142 122.694 118.515 122.016 118.541 120.781C118.656 114.099 119.661 106.925 119.872 100.09C124.768 96.6081 132.986 92.7937 137.402 89.9841C141.402 89.2417 143.258 87.2641 144.422 86.0161C146.266 84.0321 148.07 79.6225 148.083 75.3601C148.09 73.0817 147.693 70.7265 147.053 69.7345C146.163 68.7873 143.917 68.5889 139.334 70.4897C137.402 71.2897 132.499 73.9265 124.173 79.6033C119.776 82.6049 112.8 87.0145 107.763 92.7553C105.69 95.1169 107.776 116.371 108.083 120.96C108.25 123.443 108.608 128.928 109.53 133.325C110.682 138.803 113.779 143.456 117.843 143.469C124.39 143.475 124.493 140.941 122.707 137.722Z" fill="#B16668"/>
<path d="M234.665 153.083C241.464 144.154 239.737 131.405 230.808 124.607C221.88 117.808 209.13 119.535 202.332 128.463C195.533 137.392 197.26 150.141 206.189 156.94C215.117 163.738 227.866 162.012 234.665 153.083Z" fill="#F8914C"/>
<path opacity="0.1" d="M238.336 145.184C236.832 151.885 224.595 159.27 213.088 151.75C201.536 144.198 203.021 127.622 213.171 121.158C204.563 123.494 198.214 131.347 198.182 140.704C198.15 151.923 207.219 161.05 218.438 161.082C228.166 161.12 236.313 154.31 238.336 145.184Z" fill="black"/>
<path d="M231.731 133.37C234.701 134.541 237.101 137.427 238.81 140.166C238.79 139.61 238.758 139.059 238.694 138.509C236.986 136.051 234.746 133.677 232.032 132.602C229.856 131.744 227.61 131.802 225.344 132.774C224.742 132.051 224.115 131.341 223.443 130.63C222.861 130.016 222.285 129.459 221.709 128.934C226.963 126.56 230.483 126.528 233.606 127.174C233.293 126.822 232.96 126.49 232.621 126.163C229.574 125.715 226.067 126.01 221.037 128.346C220.083 127.539 219.136 126.842 218.195 126.253C220.89 124.602 222.099 122.867 221.952 120.749C221.677 120.704 221.402 120.659 221.126 120.627C221.293 122.246 220.525 123.962 217.395 125.773C214.323 124.006 211.36 123.283 208.621 123.021C208.211 123.245 207.814 123.488 207.43 123.744C210.285 123.885 213.357 124.474 216.563 126.227C213.741 127.674 210.694 128.314 207.738 128.928C205.21 129.459 202.765 129.965 200.704 130.97C200.474 131.392 200.256 131.827 200.051 132.269C202.208 130.925 204.998 130.342 207.904 129.734C211.072 129.075 214.342 128.384 217.395 126.714C218.33 127.277 219.27 127.949 220.224 128.736C212.992 132.435 204.013 142.323 203.334 154.291C203.59 154.579 203.853 154.854 204.122 155.123C204.41 142.957 213.658 132.864 220.902 129.312C221.549 129.882 222.195 130.502 222.848 131.194C223.456 131.84 224.038 132.486 224.582 133.139C217.779 136.71 217.478 146.438 217.171 156.723C217.126 158.144 217.082 159.584 217.024 161.03C217.293 161.05 217.568 161.062 217.843 161.075C217.907 159.629 217.952 158.176 217.997 156.755C218.304 146.643 218.592 137.082 225.126 133.798C230.739 140.762 232.877 148.198 231.597 156.32C231.923 156.045 232.243 155.757 232.55 155.462C233.555 147.558 231.354 140.282 225.901 133.453C227.878 132.653 229.837 132.621 231.731 133.37Z" fill="#455A64"/>
</svg>