
    <svg
      width="606"
      height="413"
      viewBox="0 0 606 413"
      fill="none"
      xmlns="http://www.w3.org/2000/svg"
    >
      <path
        d="M210.338 63.5201C210.338 63.5201 366.51 85.48 351.973 124.879C337.435 164.277 429.691 110.884 466.506 125.089C492.717 135.203 482.238 165.982 494.92 178.392C523.993 206.838 553.728 171.026 590.732 192.508C627.735 213.991 585.167 410.316 570.101 410.288L19.8545 411.606C19.8545 411.606 -22.0224 356.422 15.8599 322.71C53.7422 288.998 27.7343 273.586 23.1299 260.557C17.8445 245.599 -1.08652 202.901 52.8401 184.193C91.9243 170.645 92.9712 123.266 91.3831 114.671C91.3831 114.671 76.2662 46.6807 210.338 63.5201Z"
        fill="#E8F3FD"
      />
      <g >
        <path
          d="M533.085 409.628V356.26H511.224V316.894H490.191V334.422H472.788V328.778V294.032H444.292V330.965L435.767 331.201V293.964H425.821V278.095H419.855V267.437H396.555V278.095H390.586V293.964H380.643V314.136L376.054 314.374L374.677 254.611H343.988V286.403L333.191 286.641V236.948H329.497V226.464H297.103V236.948H293.411V303.913H286.591V283.032H280.906V272.822H272.668V243.021H260.733L259.861 278.224H246.81V284.322H242.831L239.705 284.289V249.473L155.598 250.143V332.182L148.496 332.522V276.982H122.923V300.192L115.533 300.291V291.665H99.3391V320.874H83.1424V409.628H533.085Z"
          fill="#CFE3FC"
        />
      </g>
      <path
        d="M397.869 352.231C362.122 355.279 315.793 372.766 269.601 386.535C354.981 395.823 480.454 410.987 488.258 411.187H475.044L493.675 411.495L544.522 410.783C520.811 394.848 433.622 349.178 397.869 352.231Z"
        fill="#8EC181"
      />
      <path
        d="M70.6225 410.372C70.6225 410.372 123.97 368.243 192.754 365.655C215.852 364.784 476.881 410.501 488.258 410.908L70.6225 410.372Z"
        fill="#A8D29F"
      />
      <path
        d="M543.18 130.636L552.059 117.866L549.436 117.739L541.813 128.686L534.19 117.739L531.568 117.866L540.446 130.636L523.141 155.527L505.834 130.636L514.743 117.866L512.121 117.739L504.498 128.686L496.887 117.739L494.265 117.866L503.143 130.636L485.836 155.527L468.531 130.636L477.41 117.866L474.787 117.739L467.164 128.686L459.541 117.739L456.921 117.866L465.797 130.636L448.492 155.527L431.188 130.636L440.064 117.866L437.444 117.739L429.821 128.686L422.197 117.739L419.575 117.866L428.454 130.636L411.149 155.527L393.842 130.636L402.72 117.866L400.098 117.739L392.475 128.686L384.864 117.739L382.242 117.866L391.12 130.636L373.813 155.527L356.508 130.636L365.387 117.866L362.764 117.739L355.141 128.686L347.518 117.739L344.896 117.866L353.774 130.636L336.614 155.466L319.335 130.636L328.229 117.866L325.606 117.739L317.983 128.686L310.36 117.739L307.74 117.866L316.616 130.636L299.311 155.527L282.007 130.636L290.883 117.866L288.263 117.739L280.639 128.686L273.016 117.739L270.394 117.866L279.272 130.636L261.968 155.527L244.66 130.636L253.539 117.866L250.917 117.739L243.293 128.686L235.67 117.739L233.05 117.866L241.926 130.636L224.622 155.527L207.317 130.636L216.195 117.866L213.573 117.739L205.95 128.686L198.339 117.739L195.717 117.866L204.595 130.636L187.291 155.527L169.983 130.636L178.862 117.866L176.24 117.739L168.629 128.686L161.006 117.739L158.383 117.866L167.262 130.636L149.955 155.527L132.65 130.636L141.529 117.866L138.906 117.739L131.296 128.686L123.672 117.739L121.05 117.866L130.025 130.636L112.72 155.527L95.4132 130.636L104.292 117.866L101.669 117.739L94.0588 128.686L86.4356 117.739L83.8132 117.866L92.6917 130.636L75.3845 155.527L58.0798 130.636L66.9583 117.866L64.3359 117.739L55.9249 130.667L74.0301 157.48L55.9326 184.325L74.0326 211.176L55.9326 238.028L74.0326 264.88L55.4828 291.731L74.0326 318.583L55.0635 345.435L74.0479 372.279L56.6898 399.201L64.7425 412.053L66.9761 411.901L58.0874 399.123L75.3921 374.232L92.6993 399.123L83.8208 411.893L86.4432 412.02L94.0664 401.071L101.664 412.025L104.287 411.898L95.4081 399.128L112.715 374.237L130.02 399.128L121.131 411.893L123.754 412.02L131.377 401.071L138.987 412.025L141.61 411.898L132.731 399.128L150.036 374.237L167.343 399.128L158.465 411.898L161.087 412.025L168.71 401.076L176.308 412.025L178.931 411.898L170.052 399.128L187.359 374.237L204.664 399.128L195.785 411.898L198.408 412.025L206.018 401.076L213.642 412.025L216.264 411.898L207.375 399.123L224.68 374.232L241.985 399.123L233.109 411.893L235.729 412.02L243.352 401.071L250.975 412.02L253.597 411.893L244.719 399.123L262.026 374.232L279.331 399.123L270.452 411.893L273.075 412.02L280.698 401.071L288.321 412.02L290.941 411.893L282.065 399.123L299.37 374.232L316.674 399.123L307.798 411.893L310.418 412.02L318.041 401.071L325.665 412.02L328.287 411.893L319.335 399.123L336.596 374.293L353.855 399.123L344.977 411.893L347.599 412.02L355.222 401.071L362.846 412.02L365.468 411.893L356.59 399.123L373.894 374.232L391.201 399.123L382.323 411.893L384.945 412.02L392.556 401.071L400.179 412.02L402.801 411.893L393.923 399.123L411.23 374.232L428.535 399.123L419.656 411.893L422.279 412.02L429.902 401.071L437.525 412.02L440.145 411.893L431.269 399.123L448.574 374.232L465.878 399.123L457.002 411.893L459.622 412.02L467.246 401.071L474.869 412.02L477.491 411.893L468.613 399.123L485.917 374.232L503.225 399.123L494.346 411.893L496.968 412.02L504.579 401.071L512.202 412.02L514.825 411.893L505.85 399.123L523.157 374.232L540.461 399.123L531.583 411.893L534.205 412.02L541.829 401.071L549.452 412.02L552.074 411.893L543.196 399.123L562.137 372.279L552.049 358.18L543.175 345.417L561.893 318.928L552.039 304.479L543.17 291.724L562.101 264.935L552.028 250.778L543.16 238.02L552.028 225.262L561.443 211.293L543.165 184.335L552.039 171.572L561.453 157.425L543.18 130.636ZM531.601 171.567L540.474 184.33L523.175 209.221L505.872 184.33L514.743 171.569L523.182 159.434L531.601 171.567ZM540.459 238.028L531.591 250.786L523.154 262.921L514.715 250.786L505.847 238.028L514.715 225.27L523.154 213.132L531.591 225.27L540.459 238.028ZM540.459 291.731L531.591 304.487L523.154 316.622L514.715 304.487L505.847 291.731L514.715 278.973L523.154 266.835L531.591 278.973L540.459 291.731ZM487.203 211.176L504.503 186.285L521.802 211.176L504.503 236.067L487.203 211.176ZM521.802 264.88L504.503 289.77L487.203 264.88L504.503 239.989L521.802 264.88ZM494.28 225.257L503.148 238.015L494.28 250.773L485.841 262.934L477.405 250.798L468.536 238.041L477.405 225.283L485.841 213.145L494.28 225.257ZM484.482 264.88L467.182 289.77L449.88 264.88L467.182 239.989L484.482 264.88ZM467.182 236.065L449.88 211.174L467.182 186.283L484.482 211.174L467.182 236.065ZM456.957 225.27L465.823 238.028L456.957 250.786L448.52 262.921L440.084 250.786L431.218 238.028L440.084 225.27L448.52 213.132L456.957 225.27ZM447.161 264.892L429.859 289.783L412.559 264.892L429.859 240.001L447.161 264.892ZM429.871 236.065L412.572 211.174L429.871 186.283L447.174 211.174L429.871 236.065ZM419.649 225.27L428.517 238.028L419.649 250.786L411.212 262.921L402.773 250.786L393.905 238.028L402.773 225.27L411.212 213.132L419.649 225.27ZM409.85 264.892L392.551 289.783L375.249 264.892L392.551 240.001L409.85 264.892ZM392.551 236.077L375.249 211.186L392.551 186.295L409.85 211.186L392.551 236.077ZM382.328 225.283L391.194 238.041L382.328 250.798L373.876 262.934L365.44 250.798L356.572 238.041L365.44 225.283L373.876 213.145L382.328 225.283ZM372.53 264.905L355.228 289.796L337.928 264.905L355.228 240.014L372.53 264.905ZM355.228 236.09L337.928 211.199L355.228 186.308L372.53 211.199L355.228 236.09ZM345.005 225.295L353.873 238.053L345.005 250.811L336.619 262.883L328.234 250.811L319.365 238.053L328.234 225.295L336.619 213.223L345.005 225.295ZM335.298 264.918L317.998 289.809L300.696 264.918L317.998 240.027L335.298 264.918ZM317.998 236.103L300.696 211.212L317.998 186.321L335.298 211.212L317.998 236.103ZM307.773 225.308L316.639 238.066L307.773 250.824L299.337 262.959L290.875 250.786L282.009 238.028L290.875 225.27L299.314 213.132L307.773 225.308ZM297.977 264.93L280.675 289.821L263.375 264.93L280.675 240.039L297.977 264.93ZM280.675 236.115L263.375 211.224L280.675 186.334L297.977 211.224L280.675 236.115ZM270.452 225.321L279.321 238.079L270.452 250.837L262.016 262.972L253.577 250.837L244.709 238.079L253.577 225.321L262.016 213.183L270.452 225.321ZM260.654 264.943L243.354 289.834L226.052 264.943L243.354 240.052L260.654 264.943ZM243.354 236.128L226.052 211.237L243.354 186.346L260.654 211.237L243.354 236.128ZM233.132 225.334L241.997 238.091L233.132 250.849L224.68 262.934L216.244 250.798L207.375 238.041L216.244 225.283L224.68 213.145L233.132 225.334ZM223.333 264.956L206.031 289.847L188.731 264.956L206.031 240.065L223.333 264.956ZM206.031 236.141L188.731 211.25L206.031 186.359L223.333 211.25L206.031 236.141ZM195.808 225.346L204.677 238.104L195.808 250.862L187.359 262.934L178.92 250.798L170.052 238.041L178.92 225.283L187.359 213.145L195.808 225.346ZM186.01 264.968L168.71 289.859L151.411 264.968L168.71 240.078L186.01 264.968ZM168.71 236.153L151.411 211.263L168.71 186.372L186.01 211.263L168.71 236.153ZM158.485 225.27L167.353 238.028L158.485 250.786L150.036 262.934L141.6 250.798L132.731 238.041L141.6 225.283L150.036 213.145L158.485 225.27ZM148.687 264.892L131.387 289.783L114.085 264.892L131.387 240.001L148.687 264.892ZM131.387 236.077L114.085 211.186L131.387 186.295L148.687 211.186L131.387 236.077ZM121.162 225.283L130.03 238.041L121.131 250.786L112.715 262.934L104.276 250.798L95.4081 238.041L104.276 225.283L112.715 213.145L121.162 225.283ZM94.0639 236.077L76.7643 211.186L94.0639 186.295L111.363 211.186L94.0639 236.077ZM111.363 264.892L94.0639 289.783L76.7643 264.892L94.0639 240.001L111.363 264.892ZM111.363 318.596L94.0639 343.486L76.7643 318.596L94.0639 293.705L111.363 318.596ZM104.287 304.502L95.4183 291.746L104.287 278.989L112.725 266.851L121.162 278.989L130.03 291.746L121.131 304.487L112.695 316.622L104.287 304.502ZM131.387 293.707L148.687 318.598L131.387 343.489L114.085 318.598L131.387 293.707ZM141.61 304.502L132.742 291.746L141.61 278.989L150.046 266.851L158.485 278.973L167.353 291.731L158.485 304.487L150.046 316.622L141.61 304.502ZM168.708 293.707L186.007 318.598L168.708 343.489L151.408 318.598L168.708 293.707ZM178.931 304.502L170.062 291.746L178.931 278.989L187.369 266.851L195.806 278.989L204.674 291.746L195.806 304.502L187.369 316.637L178.931 304.502ZM206.029 293.707L223.331 318.598L206.029 343.489L188.729 318.598L206.029 293.707ZM216.254 304.502L207.385 291.746L216.254 278.989L224.69 266.851L233.129 278.989L241.995 291.746L233.129 304.502L224.69 316.637L216.254 304.502ZM243.352 293.707L260.651 318.598L243.352 343.489L226.05 318.598L243.352 293.707ZM253.575 304.502L244.706 291.746L253.575 278.989L262.013 266.851L270.45 278.989L279.318 291.746L270.45 304.502L262.013 316.637L253.575 304.502ZM280.673 293.707L297.975 318.598L280.673 343.489L263.373 318.598L280.673 293.707ZM290.895 304.502L282.029 291.746L290.895 278.989L299.334 266.851L307.77 278.989L316.636 291.746L307.77 304.502L299.334 316.637L290.895 304.502ZM317.996 293.707L335.295 318.598L317.996 343.489L300.694 318.598L317.996 293.707ZM328.218 304.502L319.35 291.746L328.218 278.989L336.604 266.917L344.99 278.989L353.858 291.746L344.99 304.502L336.604 316.574L328.218 304.502ZM355.225 293.707L372.527 318.598L355.225 343.489L337.925 318.598L355.225 293.707ZM365.45 304.502L356.582 291.746L365.45 278.989L373.887 266.851L382.326 278.989L391.191 291.746L382.326 304.502L373.887 316.637L365.45 304.502ZM392.548 293.707L409.848 318.598L392.548 343.489L375.246 318.598L392.548 293.707ZM402.771 304.502L393.903 291.746L402.771 278.989L411.21 266.851L419.646 278.989L428.515 291.746L419.646 304.502L411.21 316.637L402.771 304.502ZM429.869 293.707L447.171 318.598L429.869 343.489L412.569 318.598L429.869 293.707ZM440.094 304.502L431.228 291.746L440.094 278.989L448.531 266.851L456.967 278.989L465.833 291.746L456.967 304.502L448.531 316.637L440.094 304.502ZM467.192 293.707L484.492 318.598L467.192 343.489L449.89 318.598L467.192 293.707ZM477.415 304.502L468.547 291.746L477.415 278.989L485.851 266.851L494.29 278.989L503.158 291.746L494.29 304.502L485.851 316.637L477.415 304.502ZM504.513 293.707L521.813 318.598L504.513 343.489L487.213 318.598L504.513 293.707ZM504.513 132.6L521.818 157.491L504.513 182.382L487.208 157.491L504.513 132.6ZM494.29 171.579L503.164 184.342L485.861 209.233L468.562 184.342L477.435 171.579L485.872 159.444L494.29 171.579ZM467.182 132.587L484.487 157.478L467.182 182.369L449.875 157.478L467.182 132.587ZM456.957 171.567L465.828 184.33L448.528 209.221L431.228 184.33L440.099 171.567L448.536 159.431L456.957 171.567ZM429.871 132.587L447.179 157.478L429.871 182.369L412.567 157.478L429.871 132.587ZM419.649 171.567L428.522 184.33L411.223 209.221L393.92 184.33L402.794 171.567L411.233 159.431L419.649 171.567ZM392.538 132.587L409.843 157.478L392.538 182.369L375.231 157.478L392.538 132.587ZM382.315 171.567L391.186 184.33L373.887 209.221L356.587 184.33L365.46 171.567L373.897 159.431L382.315 171.567ZM355.215 132.587L372.522 157.478L355.215 182.369L337.91 157.478L355.215 132.587ZM345 171.567L353.873 184.33L336.619 209.152L319.335 184.332L328.229 171.569L336.614 159.497L345 171.567ZM317.986 132.587L335.29 157.478L317.986 182.369L300.678 157.478L317.986 132.587ZM307.76 171.567L316.631 184.33L299.332 209.221L282.029 184.33L290.903 171.567L299.342 159.431L307.76 171.567ZM280.662 132.587L297.97 157.478L280.662 182.369L263.358 157.478L280.662 132.587ZM270.44 171.567L279.313 184.33L262.013 209.221L244.711 184.33L253.585 171.567L262.024 159.431L270.44 171.567ZM243.342 132.587L260.646 157.478L243.342 182.369L226.034 157.478L243.342 132.587ZM233.119 171.567L241.99 184.33L224.69 209.221L207.391 184.33L216.264 171.567L224.7 159.431L233.119 171.567ZM206.018 132.587L223.326 157.478L206.018 182.369L188.714 157.478L206.018 132.587ZM195.796 171.567L204.669 184.33L187.369 209.221L170.067 184.33L178.941 171.567L187.38 159.431L195.796 171.567ZM168.698 132.587L186.002 157.478L168.698 182.369L151.393 157.478L168.698 132.587ZM158.485 171.567L167.359 184.33L150.056 209.221L132.757 184.33L141.63 171.567L150.067 159.431L158.485 171.567ZM131.377 132.587L148.682 157.478L131.377 182.369L114.07 157.478L131.377 132.587ZM121.152 171.567L130.025 184.332L112.725 209.223L95.4234 184.332L104.297 171.569L112.736 159.434L121.152 171.567ZM94.0537 132.587L111.358 157.478L94.0537 182.369L76.749 157.478L94.0537 132.587ZM58.0925 184.332L66.9659 171.569L75.3921 159.431L83.831 171.567L92.7044 184.33L75.4023 209.221L58.0925 184.332ZM66.9557 250.786L58.0874 238.028L66.9557 225.27L75.3921 213.132L83.831 225.27L92.6993 238.028L83.831 250.786L75.3921 262.934L66.9557 250.786ZM66.9557 304.489L58.0874 291.734L66.9557 278.976L75.3921 266.838L83.831 278.976L92.6993 291.734L83.831 304.489L75.3921 316.625L66.9557 304.489ZM66.9557 358.19L58.0823 345.427L75.3819 320.536L92.6841 345.427L83.8208 358.18L75.3921 370.328L66.9557 358.19ZM94.0537 397.172L76.749 372.281L94.0537 347.39L111.358 372.281L94.0537 397.172ZM104.276 358.18L95.403 345.417L112.705 320.526L130.005 345.417L121.131 358.18L112.695 370.318L104.276 358.18ZM131.377 397.162L114.07 372.271L131.377 347.38L148.682 372.271L131.377 397.162ZM141.6 358.18L132.726 345.417L150.026 320.526L167.328 345.417L158.465 358.18L150.026 370.318L141.6 358.18ZM168.698 397.162L151.393 372.271L168.698 347.38L186.002 372.271L168.698 397.162ZM178.92 358.18L170.047 345.417L187.349 320.526L204.649 345.417L195.785 358.18L187.349 370.318L178.92 358.18ZM206.018 397.162L188.714 372.271L206.018 347.38L223.326 372.271L206.018 397.162ZM216.244 358.18L207.37 345.417L224.67 320.526L241.969 345.417L233.109 358.18L224.67 370.318L216.244 358.18ZM243.342 397.162L226.034 372.271L243.342 347.38L260.646 372.271L243.342 397.162ZM253.564 358.18L244.691 345.417L261.993 320.526L279.293 345.417L270.429 358.18L261.993 370.318L253.564 358.18ZM280.662 397.162L263.358 372.271L280.662 347.38L297.97 372.271L280.662 397.162ZM290.875 358.18L282.001 345.417L299.304 320.526L316.603 345.417L307.753 358.18L299.316 370.318L290.875 358.18ZM317.975 397.162L300.668 372.271L317.975 347.38L335.28 372.271L317.975 397.162ZM328.208 358.18L319.335 345.427L336.591 320.605L353.845 345.427L344.982 358.18L336.596 370.254L328.208 358.18ZM355.215 397.162L337.91 372.271L355.215 347.38L372.522 372.271L355.215 397.162ZM365.44 358.18L356.567 345.417L373.866 320.526L391.166 345.417L382.305 358.18L373.866 370.318L365.44 358.18ZM392.538 397.162L375.231 372.271L392.538 347.38L409.843 372.271L392.538 397.162ZM402.761 358.18L393.887 345.417L411.19 320.526L428.489 345.417L419.626 358.18L411.19 370.318L402.761 358.18ZM429.871 397.172L412.567 372.281L429.871 347.39L447.179 372.281L429.871 397.172ZM440.084 358.18L431.213 345.417L448.513 320.526L465.812 345.417L456.949 358.18L448.513 370.318L440.084 358.18ZM467.182 397.162L449.875 372.271L467.182 347.38L484.487 372.271L467.182 397.162ZM477.405 358.18L468.531 345.417L485.831 320.526L503.133 345.417L494.27 358.18L485.831 370.318L477.405 358.18ZM504.503 397.162L487.198 372.271L504.503 347.38L521.807 372.271L504.503 397.162ZM514.725 358.18L505.852 345.417L523.154 320.526L540.454 345.417L531.591 358.18L523.154 370.318L514.725 358.18ZM559.131 372.268L541.826 397.159L524.519 372.268L541.826 347.378L559.131 372.268ZM559.131 318.573L541.831 343.464L524.529 318.573L541.831 293.682L559.131 318.573ZM559.131 264.869L541.831 289.76L524.529 264.869L541.831 239.979L559.131 264.869ZM559.131 211.166L541.831 236.057L524.529 211.166L541.831 186.275L559.131 211.166ZM541.831 182.366L524.524 157.475L541.831 132.585L559.136 157.475L541.831 182.366Z"
        fill="#90B9F6"
      />
      <path
        d="M390.869 390.279C390.869 390.279 389.651 399.265 390.066 402.216C390.287 403.806 391.844 407.136 390.958 408.566C390.071 409.996 368.627 409.48 368.627 409.48C367.509 409.435 368.286 408.756 369.224 408.147C370.761 407.146 371.991 406.498 376.829 404.489C377.144 404.357 378.303 403.71 378.72 403.473C379.853 402.812 380.89 401.996 381.8 401.05C383.362 399.496 383.937 391.554 383.937 391.554L390.869 390.279Z"
        fill="#F7A491"
      />
      <path
        d="M429.922 292.996C429.922 292.996 427.785 304.934 423.163 312.063C418.663 319.012 403.256 334.96 397.333 345.049C397.704 351.322 396.543 360.384 395.237 367.067C393.755 374.638 390.066 398.193 390.066 398.193L383.009 398.099L379.289 340.007L401.541 293.687L409.695 278.857L429.922 292.996Z"
        fill="#F7A491"
      />
      <path
        d="M472.841 338.877C472.841 338.877 492.857 340.759 496.163 340.825C499.469 340.891 507.834 350.951 504.627 349.333C503.89 348.96 501.418 347.914 501.179 347.876C499.909 347.67 477.588 347.449 477.588 347.449L472.841 338.877Z"
        fill="#F7A491"
      />
      <path
        d="M510.744 355.894L501.461 347.985C501.461 347.985 500.597 344.297 496.196 340.812C496.841 339.046 497.861 337.44 499.184 336.103C499.555 335.735 502.064 333.231 502.511 333.502C504.152 334.501 507.316 338.935 510.769 343.781C510.769 343.781 514.652 350.497 516.586 355.305C518.519 360.113 510.744 355.894 510.744 355.894Z"
        fill="#E4163A"
      />
      <path
        d="M433 351.38C427.729 347.037 405.759 296.113 405.759 296.113L413.128 297.837L433.162 286.857C433.642 285.93 447.745 336.131 447.745 336.131L493.652 340.654C493.652 340.654 496.567 345.155 495.822 347.698C495.736 347.99 439.032 356.354 433 351.38Z"
        fill="#F7A491"
      />
      <path
        d="M426.276 309.721C425.714 309.848 404.207 342.466 404.207 342.466C404.207 342.466 384.77 333.83 378.588 327.988L398.126 297.03C398.126 297.03 417.84 293.545 418.2 294.312C418.561 295.079 426.276 309.721 426.276 309.721Z"
        fill="#C70B2C"
      />
      <path
        d="M436.626 292.338L452.828 330.536C452.828 330.536 432.552 339.535 422.485 340.368L408.298 297.952L436.626 292.338Z"
        fill="#E4163A"
      />
      <path
        d="M378.722 403.504C384.058 405.203 388.124 404.485 390.426 403.71C390.914 405.381 392.558 409.529 391.951 409.653C387.123 410.644 381.533 412.279 366.794 411.39C366.268 411.357 366.444 408.787 366.794 408.401C367.786 407.337 378.303 403.728 378.722 403.504Z"
        fill="#E4163A"
      />
      <path
        d="M387.103 264.395C388.188 263.125 393.433 247.304 393.433 247.304L383.157 244.868C383.157 244.868 380.387 253.344 379.881 254.266C379.881 254.266 363.268 253.151 355.174 252.015C354.552 251.599 352.272 250.463 351.871 249.803L351.856 249.78C351.243 248.79 349.767 246.968 349.314 246.636C348.786 246.25 347.668 245.49 346.987 245.041C346.306 244.591 345.531 244.025 345.142 243.842C344.8 243.593 344.499 243.292 344.25 242.95C344.162 242.842 344.043 242.762 343.909 242.722C343.775 242.683 343.632 242.684 343.498 242.726C343.365 242.769 343.248 242.851 343.161 242.961C343.075 243.071 343.024 243.204 343.015 243.344C342.982 243.941 343.503 244.614 343.828 245.041C344.746 246.227 346.786 247.471 346.601 247.603C346.415 247.735 342.451 246.895 341.991 246.841C341.531 246.788 336.909 245.825 335.964 245.935C335.018 246.044 334.919 246.659 335.354 247.001C335.73 247.299 342.004 249.084 342.004 249.084C342.004 249.084 342.804 249.313 342.431 249.554C342.057 249.795 336.355 248.188 335.461 248.106C334.566 248.025 333.936 248.391 334.396 249.099C334.963 249.96 341.153 251.304 341.153 251.304C341.153 251.304 341.915 251.484 341.734 251.771C341.554 252.058 336.716 250.606 336.215 250.689C335.715 250.773 335.328 251.329 335.887 251.886C336.546 252.543 342.08 253.694 342.08 253.694C342.08 253.694 342.476 253.902 342.263 254.042C342.05 254.182 337.844 253.239 337.321 253.498C337.262 253.521 337.209 253.555 337.165 253.599C337.12 253.642 337.085 253.695 337.061 253.752C337.037 253.81 337.025 253.872 337.026 253.935C337.027 253.997 337.041 254.059 337.067 254.116C337.28 255.053 341.493 255.403 343.361 256.148C343.899 256.366 348.013 257.115 353.634 258.073C353.636 258.063 353.636 258.052 353.634 258.042C359.939 259.566 377.012 263.942 377.012 263.942C377.012 263.942 386.018 265.675 387.103 264.395Z"
        fill="#F8A492"
      />
      <path
        d="M396.487 222.354L391.913 251.073C388.765 249.986 384.127 248.391 380.986 247.278C385.149 224.094 396.487 222.354 396.487 222.354Z"
        fill="#E0C09D"
      />
      <path
        d="M463.117 234.18C461.846 233.085 445.105 227.015 445.105 227.015L441.921 237.373C441.921 237.373 452.002 240.796 452.906 241.309C452.906 241.309 451.636 257.905 450.439 265.982C450.017 266.604 448.861 268.872 448.198 269.284L448.175 269.299C447.179 269.904 445.344 271.364 445.009 271.816C444.617 272.342 443.845 273.454 443.39 274.13C442.935 274.805 442.374 275.578 442.176 275.964C441.922 276.303 441.618 276.601 441.273 276.848C441.164 276.935 441.084 277.054 441.043 277.187C441.002 277.321 441.003 277.464 441.045 277.598C441.086 277.731 441.167 277.849 441.277 277.936C441.387 278.023 441.52 278.075 441.66 278.084C442.254 278.123 442.93 277.61 443.362 277.287C444.556 276.38 445.819 274.351 445.952 274.539C446.084 274.727 445.204 278.679 445.136 279.139C445.067 279.598 444.071 284.198 444.175 285.156C444.28 286.113 444.892 286.207 445.237 285.773C445.537 285.402 447.38 279.146 447.38 279.146C447.38 279.146 447.616 278.349 447.855 278.725C448.094 279.1 446.434 284.782 446.33 285.676C446.226 286.57 446.602 287.2 447.316 286.751C448.183 286.192 449.58 280.017 449.58 280.017C449.58 280.017 449.768 279.255 450.053 279.438C450.337 279.621 448.843 284.444 448.922 284.945C449.001 285.445 449.555 285.836 450.116 285.283C450.78 284.632 451.982 279.108 451.982 279.108C451.982 279.108 452.19 278.714 452.33 278.93C452.469 279.146 451.489 283.34 451.743 283.865C451.765 283.923 451.799 283.976 451.842 284.021C451.886 284.066 451.938 284.101 451.995 284.125C452.053 284.149 452.115 284.16 452.177 284.159C452.239 284.158 452.301 284.145 452.358 284.119C453.298 283.916 453.687 279.707 454.451 277.846C454.673 277.31 455.468 273.203 456.467 267.595H456.436C458.017 261.309 462.535 244.284 462.535 244.284C462.535 244.284 464.387 235.275 463.117 234.18Z"
        fill="#F8A492"
      />
      <path
        d="M391.883 238.094C391.944 240.268 396.256 298.917 396.256 298.917C425.201 307.207 438.112 294.065 438.112 294.065C438.112 294.065 430.235 253.714 430.344 248.022C430.408 244.253 427.089 219.87 424.609 219.599C421.422 219.251 417.784 218.925 413.937 219.187C410.633 219.408 398.032 221.382 395.913 222.524C395.9 222.524 391.636 228.948 391.883 238.094Z"
        fill="#F9DDBF"
      />
      <path
        d="M446.897 225.204L443.004 240.238C443.004 240.238 430.385 236.979 424.909 236.682C418.048 236.321 409.444 220.795 412.353 219.329C418.856 216.06 446.897 225.204 446.897 225.204Z"
        fill="#EFCDA9"
      />
      <path
        d="M408.328 207.956L412.366 219.639C412.366 219.639 407.81 236.164 403.289 235.62C399.496 235.16 399.447 221.651 399.447 221.651C399.447 221.651 400.21 214.262 399 210.836C397.79 207.41 408.328 207.956 408.328 207.956Z"
        fill="#F7A491"
      />
      <path
        d="M399 210.826C397.801 207.4 408.328 207.956 408.328 207.956L408.671 208.972C408.524 209.657 408.253 210.309 407.871 210.897C406.011 213.622 402.718 215.634 399.676 216.266C399.653 214.303 399.49 212.23 399 210.826Z"
        fill="#F47458"
      />
      <path
        d="M413.1 192.45C413.403 192.401 412.92 207.039 408.422 210.305C403.925 213.571 396.279 213.564 394.154 210.005C391.806 206.066 394.632 190.738 401.269 187.725C407.906 184.713 413.1 192.45 413.1 192.45Z"
        fill="#F7A491"
      />
      <path
        d="M412.666 186.702C414.699 187.301 417.339 188.894 419.448 194.035C422.045 200.357 418.292 206.206 413.576 208.573C408.859 210.94 410.605 214.562 410.605 214.562C410.605 214.562 407.772 209.556 408.191 208.113C408.428 207.223 408.811 206.377 409.324 205.612C410.689 203.719 407.767 201.802 407.18 199.92C406.727 198.477 407.223 195.442 406.529 193.062L405.536 191.167C405.536 191.167 402.956 188.439 399.945 188.556C396.934 188.673 402.868 175.735 412.666 186.702Z"
        fill="#F7CC7F"
      />
      <path
        d="M406.931 202.497C406.598 204.235 407.185 205.799 408.222 206.005C409.258 206.211 410.387 204.959 410.722 203.211C411.057 201.464 410.468 199.909 409.431 199.701C408.394 199.493 407.256 200.76 406.931 202.497Z"
        fill="#F7A491"
      />
      <path
        d="M395.155 203.831L401.34 205.568C401.34 205.568 400.537 207.877 397.783 207.191C394.452 206.356 395.155 203.831 395.155 203.831Z"
        fill="white"
      />
      <path
        d="M590.94 409.407H4.89514V412.046H590.94V409.407Z"
        fill="#13375B"
      />
      <path
        d="M567.183 116.301H45.814V118.94H567.183V116.301Z"
        fill="#90B9F6"
      />
      <path
        d="M185.387 62.9642C194.894 55.2444 196.34 41.2829 188.617 31.7804C180.893 22.2778 166.925 20.8325 157.418 28.5523C147.911 36.2721 146.466 50.2336 154.189 59.7361C161.912 69.2387 175.88 70.6839 185.387 62.9642Z"
        fill="#F8914C"
      />
      <path
        d="M149.426 48.7176C149.509 49.3305 149.618 49.9367 149.751 50.5361C155.69 50.1557 161.617 51.4381 166.866 54.2392C172.115 57.0403 176.479 61.2491 179.467 66.3926C180.039 66.1691 180.605 65.9228 181.159 65.651C178 60.13 173.346 55.6121 167.732 52.6166C162.119 49.6212 155.774 48.2697 149.426 48.7176Z"
        fill="#0B0755"
      />
      <path
        d="M193.501 47.6814C193.554 47.054 193.58 46.4267 193.582 45.7993C186.591 46.9907 179.402 45.8252 173.146 42.4863C166.89 39.1473 161.922 33.8243 159.024 27.3547C158.503 27.7052 157.995 28.0735 157.499 28.4697C160.591 35.1519 165.779 40.6435 172.277 44.1108C178.774 47.5781 186.226 48.8317 193.501 47.6814Z"
        fill="#0B0755"
      />
      <path
        d="M150.222 38.6318L189.1 59.3775C189.372 58.9788 189.636 58.5724 189.885 58.1508L150.803 37.2958C150.593 37.7377 150.402 38.1822 150.222 38.6318Z"
        fill="#0B0755"
      />
      <path
        d="M160.325 64.9449C160.533 65.0668 160.742 65.1989 160.955 65.3031C161.169 65.4072 161.387 65.524 161.606 65.6307L182.48 26.5495C182.27 26.4276 182.061 26.2955 181.848 26.1914C181.634 26.0872 181.416 25.9729 181.197 25.8663L160.325 64.9449Z"
        fill="#0B0755"
      />
      <path
        d="M197.897 85.0582C194.797 81.9595 169.234 71.5816 166.657 70.5402C166.516 69.3742 166.079 68.2637 165.387 67.3145C165.123 66.9074 165.02 66.4165 165.1 65.9379C165.249 65.0726 165.266 64.1897 165.15 63.3193C165.074 62.6831 165.13 62.0379 165.315 61.4245C165.633 60.2892 166.03 59.1818 166.434 58.077C166.688 57.3455 166.604 56.8934 166.108 56.553C165.613 56.2127 165.036 56.2508 164.464 56.7461C163.644 57.4729 163.03 58.4034 162.685 59.4434C162.337 60.4213 161.923 60.7134 160.889 60.782C160.302 60.8344 159.712 60.8131 159.131 60.7185C158.536 60.6042 157.997 60.4111 157.657 59.865C157.155 58.8186 156.582 57.8071 155.944 56.8375L155.484 55.9841C155.466 55.9562 155.23 55.5193 155.23 55.5193C155.194 55.4431 154.264 54.0487 153.898 53.6119C153.606 53.2588 153.151 52.6696 152.77 52.1667C152.425 51.7095 151.421 50.9729 151.393 50.9424C151.037 50.5309 150.543 50.265 150.003 50.1957C149.777 50.1652 149.541 50.15 149.398 50.3811C149.341 50.4786 149.314 50.5907 149.32 50.7035C149.326 50.8164 149.364 50.925 149.431 51.0161C149.619 51.3488 150.687 52.9921 150.61 53.0302C150.239 52.5857 149.045 51.2269 148.664 50.7926C148.423 50.5064 148.125 50.273 147.79 50.1069C147.455 49.9409 147.089 49.8457 146.715 49.8274C146.405 49.8122 146.075 49.7665 145.886 50.1094C145.698 50.4522 145.886 50.6961 146.097 50.9475C148.036 53.4137 149.937 55.9054 151.573 58.5875C151.851 59.0271 152.077 59.4976 152.247 59.9895C152.529 60.8319 153.089 61.5536 153.835 62.0367C154.227 62.3257 154.578 62.6676 154.877 63.0526C155.563 63.8781 157.215 67.4237 158.18 69.7071C158.754 71.0678 159.664 72.2607 160.825 73.1741C166.416 77.5909 182.534 90.3894 184.109 92.7998C186.02 95.7181 192.978 124.368 192.978 124.368L207.528 127.319V120.7C207.528 120.7 201.175 88.3219 197.897 85.0582Z"
        fill="#F48C7F"
      />
      <path
        d="M180.293 255.061L168.799 259.711C167.658 259.904 164.751 260.13 163.768 260.473C160.073 261.743 172.408 275.532 172.809 271.359C172.845 270.981 173.381 268.885 174.603 268.349C176.484 267.524 192.795 260.702 192.795 260.702L180.293 255.061Z"
        fill="#F48C7F"
      />
      <path
        d="M175.038 257.372C175.726 257.372 207.695 245.518 207.695 245.518C207.695 245.518 218.353 231.086 219.039 230.914C219.725 230.741 235.368 234.18 235.368 234.18C235.368 234.18 233.477 247.751 230.212 248.782C226.947 249.813 177.866 265.446 177.866 265.446L175.038 257.372Z"
        fill="#F48C7F"
      />
      <path
        d="M227.889 178.689L223.249 236.888H238.719L241.296 183.326L227.889 178.689Z"
        fill="#C70B2C"
      />
      <path
        d="M200.649 234.18V244.139C200.649 244.139 164.726 241.388 158.366 241.734L156.132 251.009C156.132 251.009 205.289 263.036 210.272 262.004C215.255 260.973 221.788 233.304 221.788 233.304L200.649 234.18Z"
        fill="#F7A491"
      />
      <path
        d="M207.007 186.161L193.859 234.609L222.218 241.05L235.368 187.964L207.007 186.161Z"
        fill="#E4163A"
      />
      <path
        d="M180.084 134.764C179.545 135.78 202.621 165.545 205.716 171.988L201.848 187.964C201.848 187.964 220.67 196.468 231.241 194.408C241.812 192.348 243.865 180.233 243.865 180.233C243.865 180.233 231.49 136.941 220.403 129.725C209.317 122.509 207.528 120.701 207.528 120.701C207.528 120.701 186.437 122.748 180.084 134.764Z"
        fill="white"
      />
      <path
        d="M187.758 113.449L191.25 126.748C191.25 126.748 198.471 130.065 202.311 126.768C205.533 124.002 204.43 120.629 204.43 120.629C204.43 120.629 199.165 114.254 198.154 110.343C197.142 106.431 187.758 113.449 187.758 113.449Z"
        fill="#F7A491"
      />
      <path
        d="M198.154 110.343C197.137 106.431 187.758 113.449 187.758 113.449L188.063 114.59C188.623 115.132 189.278 115.567 189.994 115.875C193.397 117.246 197.686 117.074 200.888 115.783C199.699 113.965 198.568 111.946 198.154 110.343Z"
        fill="#F47458"
      />
      <path
        d="M177.95 96.0128C177.609 96.0408 182.102 111.714 187.834 114.026C193.567 116.337 201.81 114.264 203.139 109.848C204.603 104.963 197.397 89.1755 189.418 87.715C181.439 86.2546 177.95 96.0128 177.95 96.0128Z"
        fill="#F7A491"
      />
      <path
        d="M176.86 89.6885C174.827 90.8848 172.418 93.318 171.536 99.4391C170.454 106.962 176.085 112.266 181.812 113.548C187.54 114.831 189.095 118.526 189.095 118.526L188.955 116.337C188.828 114.668 188.328 113.049 187.494 111.598C186.997 110.699 186.355 109.89 185.593 109.202C183.609 107.529 186.239 104.661 186.356 102.477C186.45 100.798 185.085 97.651 185.194 94.9003L185.753 92.584C185.753 92.584 187.786 88.9418 191.069 88.2661C194.352 87.5905 184.45 75.201 176.86 89.6885Z"
        fill="#13375B"
      />
      <path
        d="M187.329 105.192C188.162 106.97 187.964 108.832 186.889 109.33C185.814 109.827 184.269 108.786 183.438 106.998C182.608 105.21 182.803 103.361 183.878 102.863C184.953 102.365 186.498 103.407 187.329 105.192Z"
        fill="#F7A491"
      />
      <path
        d="M195.77 106.17L200.667 102.716C200.667 102.716 201.866 104.656 199.76 106.236C197.183 108.164 195.77 106.17 195.77 106.17Z"
        fill="white"
      />
      <path
        d="M162.736 241.764C162.736 241.764 150.445 240.271 150.427 240.266C149.335 239.882 146.684 238.673 145.66 238.488C141.818 237.799 145.914 255.843 148.293 252.389C148.506 252.076 149.993 250.501 151.319 250.611C153.365 250.799 157.519 251.091 157.519 251.091L162.736 241.764Z"
        fill="#F7A491"
      />
      <path
        d="M148.336 252.356C148.336 252.356 147.866 248.208 147.935 246.138C148.003 244.068 150.951 241.853 150.539 240.296C150.084 238.594 142.814 237.457 142.814 237.457C142.814 237.457 137.786 258.251 138.672 264.537C139.023 267.039 144.156 259.917 148.336 252.356Z"
        fill="#E4163A"
      />
      <path
        d="M172.83 271.295C172.83 271.295 170.41 267.894 169.465 266.051C168.52 264.207 170.027 260.841 168.916 259.701C167.694 258.431 160.785 260.971 160.785 260.971C160.785 260.971 166.464 281.595 170.286 286.667C171.8 288.648 172.84 279.931 172.83 271.295Z"
        fill="#E4163A"
      />
      <path
        d="M185.858 150.857C186.587 150.095 187.326 149.315 188.066 148.543C189.382 146.765 190.947 143.836 191.743 139.356C192.538 134.876 190.424 132.417 188.2 131.045C187.175 130.412 185.953 130.176 184.765 130.382C183.577 130.588 182.506 131.221 181.754 132.163C178.011 136.857 174.857 141.246 173.467 143.214C173.467 143.214 163.682 156.421 162.99 157.826C162.406 159.025 159.263 184.749 158.007 194.642C157.78 195.785 157.428 196.9 156.958 197.966C155.746 200.428 153.464 202.012 152.234 203.945C151.004 205.878 147.353 208.992 147.777 210C147.791 210.07 147.819 210.135 147.859 210.194C147.899 210.252 147.951 210.301 148.011 210.339C148.071 210.376 148.138 210.401 148.208 210.412C148.278 210.423 148.349 210.419 148.417 210.402C149.076 210.29 152.328 206.635 152.62 206.622C152.913 206.61 152.681 207.064 152.681 207.064C152.681 207.064 148.336 211.796 148.163 212.84C148.018 213.724 148.743 213.983 149.258 213.729C149.774 213.475 153.271 208.934 153.634 209.071C153.998 209.208 153.408 209.889 153.408 209.889C153.408 209.889 148.58 215.222 148.631 216.403C148.671 217.366 149.5 217.282 150.272 216.614C151.045 215.946 155.238 210.681 155.743 210.656C156.249 210.63 155.662 211.374 155.662 211.374C155.662 211.374 151.055 217.183 150.905 217.704C150.73 218.308 151.218 218.816 152.176 218.286C153.134 217.755 156.75 213.82 157.138 213.46C157.527 213.099 160.62 209.691 160.879 209.688C161.138 209.685 160.078 212.19 160.015 213.894C159.995 214.499 159.964 215.469 160.388 215.997C160.489 216.12 160.624 216.21 160.777 216.254C160.929 216.299 161.091 216.297 161.243 216.248C161.394 216.199 161.527 216.106 161.624 215.981C161.721 215.855 161.779 215.703 161.788 215.545C161.819 215.062 161.883 214.394 162.022 214.128C162.251 213.691 162.602 212.662 162.932 211.799C163.262 210.935 163.791 209.49 164.022 208.781C164.223 208.172 164.38 205.512 164.291 204.192C164.193 202.987 164.213 201.776 164.35 200.575C164.858 197.837 166.251 192.638 166.251 192.638C166.251 192.638 172.372 166.843 172.751 165.461L174.928 162.609C174.928 162.609 180.079 156.952 185.855 150.867L185.858 150.857Z"
        fill="#F8A492"
      />
      <path
        d="M299.433 33.5265H291.012V409.625H299.433V33.5265Z"
        fill="#13375B"
      />
      <path d="M377.734 0H211.662V102.743H377.734V0Z" fill="#E4163A" />
      <path
        d="M370.057 98.5552H219.341V4.19086H370.057V98.5552ZM222.281 95.6166H367.122V7.12951H222.281V95.6166Z"
        fill="white"
      />
      <path
        d="M329.245 81.5863H260.156V37.7148H329.245V81.5863ZM263.098 78.6476H326.305V40.6535H263.096L263.098 78.6476Z"
        fill="white"
      />
      <path
        d="M321.696 90.8594C321.719 90.7965 321.73 90.7296 321.728 90.6625C321.725 90.5955 321.71 90.5295 321.682 90.4684C321.654 90.4073 321.615 90.3523 321.565 90.3065C321.516 90.2607 321.459 90.2251 321.396 90.2015C321.333 90.178 321.266 90.1671 321.199 90.1695C321.132 90.1718 321.066 90.1873 321.005 90.2152C320.943 90.243 320.888 90.2826 320.843 90.3317C320.797 90.3808 320.761 90.4384 320.738 90.5013L311.181 116.172L305.59 101.131L309.415 90.8594C309.462 90.7324 309.457 90.5918 309.401 90.4684C309.345 90.345 309.242 90.249 309.115 90.2015C308.988 90.1541 308.847 90.159 308.724 90.2152C308.6 90.2714 308.504 90.3743 308.457 90.5013L305.044 99.6652L301.631 90.5013C301.608 90.4384 301.572 90.3808 301.526 90.3317C301.48 90.2826 301.425 90.243 301.364 90.2152C301.303 90.1873 301.237 90.1718 301.17 90.1695C301.103 90.1671 301.036 90.178 300.973 90.2015C300.91 90.2251 300.853 90.2607 300.803 90.3065C300.754 90.3523 300.715 90.4073 300.687 90.4684C300.659 90.5295 300.644 90.5955 300.641 90.6625C300.639 90.7296 300.65 90.7965 300.673 90.8594L304.485 101.131L298.895 116.172L293.304 101.131L297.116 90.8594C297.163 90.7321 297.158 90.5911 297.102 90.4675C297.045 90.3439 296.942 90.2478 296.815 90.2003C296.687 90.1528 296.546 90.1578 296.423 90.2143C296.299 90.2707 296.203 90.3739 296.155 90.5013L292.745 99.6652L289.333 90.5013C289.309 90.4384 289.273 90.3808 289.227 90.3317C289.182 90.2826 289.127 90.243 289.066 90.2152C289.004 90.1873 288.938 90.1718 288.871 90.1695C288.804 90.1671 288.737 90.178 288.674 90.2015C288.611 90.2251 288.554 90.2607 288.505 90.3065C288.456 90.3523 288.416 90.4073 288.388 90.4684C288.36 90.5295 288.345 90.5955 288.342 90.6625C288.34 90.7296 288.351 90.7965 288.375 90.8594L292.186 101.131L286.596 116.172L281.005 101.131L284.83 90.8594C284.853 90.7965 284.864 90.7296 284.862 90.6625C284.859 90.5955 284.844 90.5295 284.816 90.4684C284.788 90.4073 284.749 90.3523 284.7 90.3065C284.65 90.2607 284.593 90.2251 284.53 90.2015C284.467 90.178 284.4 90.1671 284.333 90.1695C284.266 90.1718 284.2 90.1873 284.139 90.2152C284.078 90.243 284.023 90.2826 283.977 90.3317C283.931 90.3808 283.895 90.4384 283.872 90.5013L280.457 99.6652L277.046 90.5013C276.999 90.3739 276.903 90.2707 276.779 90.2143C276.655 90.1578 276.514 90.1528 276.387 90.2003C276.26 90.2478 276.156 90.3439 276.1 90.4675C276.043 90.5911 276.038 90.7321 276.086 90.8594L279.905 101.143L274.315 116.185L264.748 90.5013C264.7 90.3739 264.604 90.2707 264.48 90.2143C264.357 90.1578 264.216 90.1528 264.088 90.2003C263.961 90.2478 263.858 90.3439 263.801 90.4675C263.745 90.5911 263.74 90.7321 263.787 90.8594L283.862 144.774C283.885 144.836 283.92 144.894 283.966 144.943C284.012 144.992 284.067 145.032 284.128 145.06C284.189 145.088 284.255 145.104 284.322 145.106C284.389 145.109 284.456 145.098 284.518 145.075C284.581 145.051 284.639 145.016 284.688 144.97C284.737 144.924 284.777 144.87 284.805 144.809C284.833 144.748 284.849 144.682 284.851 144.615C284.854 144.548 284.843 144.481 284.82 144.418L280.99 134.131C281 134.118 281.008 134.105 281.016 134.091L286.606 119.105L292.196 134.147L288.385 144.42C288.337 144.547 288.343 144.688 288.399 144.811C288.456 144.934 288.559 145.03 288.686 145.077C288.813 145.124 288.953 145.119 289.077 145.063C289.2 145.006 289.295 144.903 289.343 144.776L292.755 135.612L296.165 144.776C296.213 144.903 296.308 145.007 296.432 145.063C296.493 145.091 296.559 145.107 296.626 145.11C296.693 145.112 296.761 145.102 296.824 145.078C296.887 145.055 296.944 145.019 296.994 144.974C297.043 144.928 297.083 144.873 297.111 144.812C297.139 144.751 297.155 144.685 297.157 144.618C297.16 144.551 297.149 144.484 297.126 144.42L293.314 134.147L298.905 119.105L304.48 134.078C304.489 134.096 304.5 134.113 304.513 134.129L300.681 144.42C300.658 144.483 300.647 144.55 300.649 144.617C300.652 144.684 300.667 144.75 300.695 144.811C300.723 144.872 300.763 144.927 300.812 144.973C300.861 145.018 300.919 145.054 300.982 145.077C301.045 145.1 301.112 145.111 301.179 145.109C301.246 145.106 301.312 145.09 301.373 145.063C301.434 145.035 301.489 144.995 301.534 144.946C301.58 144.897 301.616 144.839 301.639 144.776L311.658 117.869C311.658 117.869 311.658 117.846 311.658 117.833L321.696 90.8594ZM280.457 132.679L274.866 117.637L280.457 102.599L286.047 117.637L280.457 132.679ZM292.75 132.679L287.16 117.637L292.75 102.599L298.341 117.637L292.75 132.679ZM299.441 117.637L305.031 102.599L310.622 117.637L305.031 132.679L299.441 117.637Z"
        fill="white"
      />
      <path
        d="M326.102 90.8594C326.149 90.7324 326.144 90.5918 326.088 90.4684C326.032 90.3451 325.929 90.2491 325.802 90.2016C325.675 90.1541 325.534 90.159 325.411 90.2152C325.287 90.2714 325.191 90.3743 325.144 90.5013L315.587 116.172L309.997 101.131L313.808 90.8594C313.856 90.7324 313.851 90.5918 313.795 90.4684C313.738 90.3451 313.635 90.2491 313.508 90.2016C313.381 90.1541 313.241 90.159 313.117 90.2152C312.994 90.2714 312.898 90.3743 312.85 90.5013L309.438 99.6652L306.025 90.5013C306.001 90.4384 305.966 90.3808 305.92 90.3317C305.874 90.2826 305.819 90.243 305.758 90.2152C305.697 90.1874 305.631 90.1718 305.564 90.1695C305.497 90.1672 305.43 90.1781 305.367 90.2016C305.304 90.2251 305.246 90.2608 305.197 90.3065C305.148 90.3523 305.108 90.4073 305.08 90.4684C305.053 90.5295 305.037 90.5955 305.035 90.6626C305.032 90.7297 305.043 90.7965 305.067 90.8594L308.894 101.143L303.303 116.185L297.713 101.143L301.54 90.8721C301.587 90.7448 301.582 90.6038 301.526 90.4802C301.469 90.3566 301.366 90.2605 301.239 90.213C301.111 90.1655 300.97 90.1706 300.847 90.227C300.723 90.2834 300.627 90.3867 300.579 90.514L297.169 99.6779L293.757 90.514C293.733 90.4511 293.697 90.3935 293.652 90.3444C293.606 90.2953 293.551 90.2557 293.49 90.2279C293.428 90.2001 293.362 90.1845 293.295 90.1822C293.228 90.1799 293.161 90.1908 293.098 90.2143C293.035 90.2378 292.978 90.2735 292.929 90.3193C292.88 90.365 292.84 90.42 292.812 90.4811C292.784 90.5422 292.769 90.6082 292.766 90.6753C292.764 90.7424 292.775 90.8092 292.799 90.8721L296.61 101.143L291.02 116.185L285.429 101.143L289.241 90.8721C289.289 90.7451 289.284 90.6045 289.227 90.4811C289.171 90.3578 289.068 90.2618 288.941 90.2143C288.814 90.1668 288.673 90.1717 288.55 90.2279C288.427 90.2841 288.331 90.387 288.283 90.514L284.87 99.6779L281.46 90.514C281.413 90.3867 281.317 90.2834 281.193 90.227C281.069 90.1706 280.928 90.1655 280.801 90.213C280.673 90.2605 280.57 90.3566 280.514 90.4802C280.457 90.6038 280.452 90.7448 280.5 90.8721L284.311 101.143L278.721 116.185L269.151 90.5013C269.104 90.3743 269.008 90.2714 268.884 90.2152C268.761 90.159 268.62 90.1541 268.493 90.2016C268.366 90.2491 268.263 90.3451 268.207 90.4684C268.151 90.5918 268.146 90.7324 268.193 90.8594L288.268 144.774C288.291 144.836 288.327 144.894 288.372 144.943C288.418 144.992 288.473 145.032 288.534 145.06C288.595 145.088 288.661 145.104 288.728 145.106C288.795 145.109 288.862 145.098 288.925 145.075C288.988 145.051 289.045 145.016 289.094 144.97C289.144 144.924 289.183 144.87 289.211 144.809C289.239 144.748 289.255 144.682 289.257 144.615C289.26 144.548 289.249 144.481 289.226 144.418L285.396 134.131C285.406 134.118 285.414 134.105 285.422 134.091L291.012 119.105L296.603 134.147L292.791 144.42C292.744 144.547 292.749 144.688 292.805 144.811C292.862 144.934 292.965 145.03 293.092 145.077C293.219 145.124 293.36 145.119 293.483 145.063C293.606 145.006 293.702 144.903 293.749 144.776L297.162 135.612L300.572 144.776C300.619 144.903 300.715 145.007 300.838 145.063C300.899 145.091 300.965 145.107 301.032 145.11C301.1 145.112 301.167 145.102 301.23 145.078C301.293 145.055 301.351 145.019 301.4 144.974C301.449 144.928 301.489 144.873 301.517 144.812C301.545 144.751 301.561 144.685 301.564 144.618C301.566 144.551 301.556 144.484 301.532 144.42L297.705 134.147L303.296 119.105L308.871 134.078C308.88 134.096 308.891 134.113 308.904 134.129L305.072 144.42C305.025 144.547 305.03 144.688 305.086 144.811C305.143 144.934 305.246 145.03 305.373 145.077C305.5 145.124 305.641 145.119 305.764 145.063C305.887 145.006 305.983 144.903 306.03 144.776L316.049 117.869C316.049 117.869 316.049 117.846 316.049 117.833L326.102 90.8594ZM284.855 132.679L279.265 117.637L284.855 102.599L290.446 117.637L284.855 132.679ZM297.149 132.679L291.558 117.637L297.149 102.599L302.739 117.637L297.149 132.679ZM303.834 117.637L309.425 102.599L315.015 117.637L309.425 132.679L303.834 117.637Z"
        fill="white"
      />
      <path
        d="M329.09 89.0128H261.355C261.218 89.0128 261.106 89.1243 261.106 89.2617V91.0778C261.106 91.2153 261.218 91.3267 261.355 91.3267H329.09C329.228 91.3267 329.339 91.2153 329.339 91.0778V89.2617C329.339 89.1243 329.228 89.0128 329.09 89.0128Z"
        fill="#2B478B"
      />
    </svg>