<svg width="382" height="262" viewBox="0 0 382 262" fill="none" xmlns="http://www.w3.org/2000/svg">
<path d="M16.9306 260.451C16.9306 260.451 -18.9623 192.019 25.9216 142.213C70.8054 92.4077 109.407 120.001 128.992 118.617C148.578 117.233 154.86 73.6125 212.799 60.4557C270.739 47.2989 324.731 71.4797 318.897 114.875C310.189 179.652 418.861 148.219 363.045 260.734L16.9306 260.451Z" fill="#E8F3FD"/>
<path d="M332.96 247.227C336.924 242.438 341.641 235.768 337.639 235.28C333.922 234.827 331.468 240.774 330.081 245.72C329.674 245.563 329.254 245.429 328.821 245.315C330.124 239.296 329.96 231.029 327.518 232.368C325.483 233.485 325.647 239.92 326.09 244.869C323.67 244.672 321.023 244.904 318.37 245.278C317.798 241.829 316.54 237.03 314.143 236.926C311.697 236.821 314.496 242 316.683 245.533C316.174 245.614 315.668 245.698 315.163 245.784C314.238 244.339 312.857 242.728 311.371 242.872C309.845 243.021 311.715 244.675 313.58 246.056C307.128 247.168 301.487 248.094 300.138 244.374C297.543 237.218 288.884 224.73 279.963 223.954C271.041 223.178 248.645 246.003 233.83 243.131C182.653 233.211 157.477 261.306 157.477 261.306L232.921 260.494L344.679 260.933C344.679 260.933 340.791 252.283 332.96 247.227Z" fill="#A8D29F"/>
<path d="M199.552 260.451C179.679 240.51 134.185 270.97 89.6546 243.331C85.2604 240.603 79.6499 233.086 62.1565 234.411C58.2861 234.704 54.9137 236.114 52.0072 238.131C50.1371 232.976 46.9607 227.195 42.2998 228.363C37.1279 229.661 43.4196 236.318 48.6091 240.936C48.2332 241.299 47.8669 241.67 47.5118 242.05C46.3212 241.083 44.5025 240.36 41.8403 240.958C38.063 241.808 42.3464 243.123 45.8521 243.949C39.9621 251.184 37.3191 260.242 37.3191 260.242L199.552 260.451Z" fill="#8EC181"/>
<path d="M112.953 101.801C119.253 101.801 124.36 96.7152 124.36 90.4413C124.36 84.1673 119.253 79.0813 112.953 79.0813C106.653 79.0813 101.546 84.1673 101.546 90.4413C101.546 96.7152 106.653 101.801 112.953 101.801Z" fill="#F8914C"/>
<path d="M119.214 80.947C119.699 82.2094 119.969 83.579 119.969 85.011C119.969 91.2846 114.861 96.371 108.562 96.371C106.248 96.371 104.098 95.683 102.3 94.5054C103.943 98.771 108.091 101.801 112.953 101.801C119.252 101.801 124.36 96.715 124.36 90.4414C124.36 86.4702 122.313 82.9774 119.214 80.947Z" fill="#DE8041"/>
<path d="M110.543 100.254C110.392 100.254 110.257 100.147 110.228 99.9933C108.999 93.4813 109.903 88.4621 110.88 85.3981C111.942 82.0637 113.285 80.2941 113.342 80.2205C113.449 80.0797 113.65 80.0541 113.792 80.1613C113.933 80.2685 113.96 80.4685 113.853 80.6093C113.8 80.6781 108.56 87.6973 110.861 99.8765C110.893 100.051 110.779 100.217 110.604 100.251C110.583 100.252 110.562 100.254 110.543 100.254Z" fill="#0B0755"/>
<path d="M121.95 93.0254C121.875 93.0254 121.798 92.9982 121.737 92.9454C121.671 92.8878 115.029 87.1678 102.662 88.5534C102.487 88.5726 102.326 88.4462 102.307 88.2718C102.288 88.0958 102.415 87.9374 102.59 87.9182C109.201 87.1774 114.163 88.4462 117.159 89.6414C120.421 90.9422 122.093 92.4062 122.162 92.467C122.294 92.5838 122.307 92.787 122.19 92.9182C122.127 92.9886 122.039 93.0254 121.95 93.0254Z" fill="#0B0755"/>
<path d="M115.417 98.7615C115.334 98.7615 115.25 98.7294 115.188 98.6654C115.054 98.5294 111.945 95.251 114.111 88.9518C114.804 86.939 115.909 85.6014 117.398 84.9774C119.675 84.0222 121.992 85.0942 122.088 85.1406C122.249 85.2158 122.316 85.4078 122.241 85.5678C122.165 85.7278 121.973 85.795 121.813 85.7198C121.793 85.7102 119.653 84.7246 117.643 85.571C116.332 86.123 115.348 87.331 114.718 89.1614C112.68 95.0926 115.617 98.1903 115.647 98.2223C115.771 98.3487 115.768 98.5518 115.641 98.675C115.578 98.731 115.498 98.7615 115.417 98.7615Z" fill="#0B0755"/>
<path d="M104.813 95.6686C104.736 95.6686 104.661 95.6414 104.6 95.587C104.468 95.4686 104.457 95.267 104.574 95.1358C106.949 92.4926 108.008 89.5215 107.723 86.3055C107.509 83.8975 106.579 82.2447 106.57 82.2271C106.481 82.0735 106.536 81.8783 106.69 81.7903C106.844 81.7023 107.04 81.7567 107.129 81.9087C107.169 81.9791 108.13 83.6783 108.361 86.2191C108.575 88.5631 108.175 92.0863 105.054 95.5615C104.989 95.6319 104.9 95.6686 104.813 95.6686Z" fill="#0B0755"/>
<path d="M70.1063 178.707C70.1063 178.707 71.5154 181.608 71.2487 182.472C70.982 183.336 69.3946 184.443 68.2796 184.373C67.1645 184.302 66.8127 181.969 67.5774 179.705C68.3406 177.443 70.1063 178.707 70.1063 178.707Z" fill="#FFB27D"/>
<path d="M83.7455 132.596C83.7455 132.596 65.7926 153.222 65.8328 155.622C65.8729 158.022 70.2897 161.203 72.4779 161.134C74.6068 161.067 89.7818 146.833 89.6966 146.067C89.6114 145.297 83.7455 132.596 83.7455 132.596Z" fill="#EFCDA9"/>
<path d="M66.4158 178.137C65.2831 169.531 65.8583 155.371 65.8583 155.371L74.2676 156.447C74.2676 156.447 72.9806 175.935 70.6445 179.43C70.6429 179.428 66.8175 181.187 66.4158 178.137Z" fill="#EFCDA9"/>
<path d="M110.9 106.958C110.9 106.958 112.45 102.153 111.322 101.55C107.145 99.3228 107.007 95.7692 105.754 96.0156C104.5 96.262 106.388 102.838 107.788 105.896C109.184 108.953 110.9 106.958 110.9 106.958Z" fill="#FFB27D"/>
<path d="M89.2335 253.848C89.2335 253.848 88.0172 260.212 89.2399 260.227C89.3669 260.228 103.118 260.227 103.118 260.227C103.118 260.227 104.664 258.336 102.418 257.947C100.17 257.556 96.4106 255.984 95.0481 253.027C93.6165 249.915 89.2335 253.848 89.2335 253.848Z" fill="#E4163A"/>
<path d="M71.8287 254.014C71.8287 254.014 70.7089 259.27 71.7002 260.229H85.8517C85.797 259.814 86.9137 258.443 85.0114 258.112C82.7637 257.721 79.0041 256.149 77.6416 253.192C76.2101 250.08 71.8287 254.014 71.8287 254.014Z" fill="#E4163A"/>
<path d="M97.7474 187.262C97.7474 187.262 94.2947 199.046 86.7947 221.776C79.2948 244.507 77.8296 253.558 77.8296 253.558C77.8296 253.558 76.8704 252.881 75.0259 252.903C73.2988 252.923 71.8303 254.014 71.8303 254.014C71.8303 254.014 71.6021 230.305 75.0581 218.875C78.514 207.444 75.8036 177.667 75.8036 177.667L97.7474 187.262Z" fill="#FCA56B"/>
<path d="M101.661 178.368C101.661 178.368 101.946 197.664 98.5941 221.356C95.241 245.049 94.8506 252.668 94.8506 252.668C94.8506 252.668 93.9251 252.396 92.2028 252.496C90.4435 252.598 89.2337 253.846 89.2337 253.846C89.2337 253.846 84.1598 232.033 85.5351 220.176C86.9104 208.316 78.3549 179.12 78.3549 179.12L101.661 178.368Z" fill="#FFB27D"/>
<path d="M75.8017 177.667C75.8017 177.667 77.6108 207.252 74.1533 218.683L85.3389 222.737C87.3006 197.304 97.7456 187.262 97.7456 187.262L75.8017 177.667Z" fill="#C70B2C"/>
<path d="M101.661 178.368L78.3549 179.12C78.3549 179.12 85.5447 207.518 84.1694 219.376L99.4328 221.356C102.786 197.664 101.661 178.368 101.661 178.368Z" fill="#E4163A"/>
<path d="M86.1185 133.213L89.9054 136.006L95.3793 134.859C95.3038 134.361 94.9423 132.302 94.613 130.437C94.5937 130.326 94.5728 130.216 94.5551 130.109C94.2739 128.521 94.0297 127.157 94.0297 127.157L88.9173 124.619L87.0118 123.673C87.0167 123.707 87.1596 125.435 87.1789 125.688C87.5356 130.168 86.1185 133.213 86.1185 133.213Z" fill="#FFB27D"/>
<path d="M94.9952 131.803C94.8747 131.753 87.5499 129.6 86.7546 129.862C85.9593 130.125 85.4886 131.657 85.4886 131.657L97.471 134.355C97.4694 134.354 96.5263 132.445 94.9952 131.803Z" fill="#EFCDA9"/>
<path d="M75.2686 180.75C76.5105 186.392 97.177 187.062 102.503 181.94C103.107 181.356 103.139 178.641 102.91 174.98C102.596 169.964 101.798 163.174 101.329 157.67C101.128 155.323 100.99 153.212 100.972 151.569C100.945 148.915 100.578 146.2 100.092 143.734C99.738 141.947 98.8576 140.15 97.8438 138.556C95.8837 135.467 93.4399 133.145 93.4399 133.145C93.4399 133.145 87.3748 131.105 85.4869 131.657C76.3868 134.318 74.0282 175.108 75.2686 180.75Z" fill="#F9DDBF"/>
<path d="M87.5627 125.766C88.6857 127.905 92.8678 129.755 94.6127 130.435C94.5934 130.325 94.5725 130.214 94.5548 130.107C94.2736 128.52 94.0294 127.155 94.0294 127.155L88.9171 124.617C87.786 124.601 87.0984 124.885 87.5627 125.766Z" fill="#FCA56B"/>
<path d="M96.5134 126.857C96.5134 126.857 87.2912 129.723 85.5881 123.976C83.8851 118.229 81.5474 114.728 87.3635 112.656C93.1796 110.584 94.9791 112.438 96.0154 114.219C97.0517 116 98.8672 125.965 96.5134 126.857Z" fill="#FFB27D"/>
<path d="M95.4047 113.352C95.4047 113.352 93.9539 120.352 92.5657 120.062C91.1775 119.771 89.9179 119.557 90.1203 121.573C90.3244 123.589 92.2492 125.917 87.969 126.274C83.6889 126.63 77.5353 115.638 78.7114 113.557C82.1047 107.552 100.308 106.027 95.4047 113.352Z" fill="#163560"/>
<path d="M92.9399 149.353C94.3731 152.448 96.9855 156.387 101.328 157.669C101.128 155.321 100.989 153.211 100.972 151.568C100.944 148.913 100.578 146.198 100.091 143.733C99.7377 141.945 98.8573 140.149 97.8435 138.555C96.465 139.573 95.1138 140.933 94.0132 142.165C92.2523 144.134 91.8313 146.958 92.9399 149.353Z" fill="#EFCDA9"/>
<path d="M89.0023 133.144C89.0023 133.144 91.0139 130.915 94.6128 130.435C97.8631 130.001 109.336 125.361 109.754 123.877C110.061 122.782 107.129 104.419 107.095 104.824C107.095 104.824 109.155 102.68 111.592 103.995C111.592 103.995 119.59 125.469 118.229 128.339C116.139 132.747 91.4701 147.406 90.9785 147.646C88.162 149.009 89.0023 133.144 89.0023 133.144Z" fill="#F9DDBF"/>
<path d="M165.321 105.307H166.121C166.121 105.307 167.377 101.009 166.441 99.8685C165.504 98.7277 163.19 97.6989 162.67 98.6493C162.149 99.6013 161.95 103.131 162.315 104.531C162.679 105.932 165.321 105.307 165.321 105.307Z" fill="#FFB27D"/>
<path d="M193.14 132.209C197.083 132.677 200.006 131.603 199.896 129.142C199.541 127.237 199.217 125.293 199.191 123.715C199.18 123.129 199.22 122.509 199.331 121.808L190.483 121.656L190.43 122.52L190.057 128.509L189.94 130.413C189.942 130.413 189.199 131.744 193.14 132.209Z" fill="#FFB27D"/>
<path d="M190.059 128.507C190.676 128.707 191.348 128.822 192.075 128.822C195.586 128.822 199.073 123.188 199.182 122.488L191.542 122.336L190.432 122.518L190.059 128.507Z" fill="#FCA56B"/>
<path d="M188.997 124.701C188.997 124.701 198.781 126.669 199.919 120.582C201.056 114.496 203.084 110.649 196.885 109.136C190.687 107.622 189.035 109.718 188.159 111.659C187.282 113.598 186.48 124.032 188.997 124.701Z" fill="#FFB27D"/>
<path d="M196.193 260.246C196.193 260.246 196.575 257.328 197.422 255.641C198.269 253.955 203.658 255.029 203.658 255.029C203.658 255.029 204.755 255.963 204.986 260.256L196.193 260.246Z" fill="#E4163A"/>
<path d="M178.007 260.251C179.273 259.482 178.398 254.058 178.398 254.058C178.398 254.058 172.498 249.357 171.686 252.955C170.875 256.554 166.081 258.17 163.353 258.611C161.47 258.915 161.589 259.722 161.622 260.253H178.007V260.251Z" fill="#E4163A"/>
<path d="M190.072 218.809C189.831 220.128 187.559 221.195 187.519 221.971C186.971 232.625 180.195 250.017 178.438 254.329C175.857 253.803 175.054 253.883 173.126 253.27C172.327 253.016 172.215 253.03 171.686 252.955C175.875 233.782 175.734 207.308 176.294 190.963C176.577 182.729 177.996 177.043 177.996 177.043C177.996 177.043 198.622 171.563 198.744 178.496C198.852 184.63 191.911 208.688 190.072 218.809Z" fill="#FFB27D"/>
<path d="M190.072 218.809L176.293 190.963C176.576 182.729 177.994 177.043 177.994 177.043C177.994 177.043 198.621 171.563 198.743 178.496C198.852 184.63 191.911 208.688 190.072 218.809Z" fill="#233862"/>
<path d="M187.518 178.123L197.886 255.16C197.886 255.16 200.01 254.363 203.657 255.028C203.657 255.028 206.328 215.63 206.063 205.51C205.796 195.392 210.116 178.396 207.242 176.526C204.366 174.656 187.518 178.123 187.518 178.123Z" fill="#FFB27D"/>
<path d="M177.994 177.043C177.994 177.043 176.576 182.731 176.293 190.963C175.732 207.309 175.393 209.577 174.472 221.892L189.639 221.982C189.68 221.208 189.832 220.126 190.073 218.808C191.913 208.688 198.854 184.629 198.744 178.494C198.621 171.561 177.994 177.043 177.994 177.043Z" fill="#E4163A"/>
<path d="M190.072 218.809L176.293 190.963C176.576 182.729 177.994 177.043 177.994 177.043C177.994 177.043 198.621 171.563 198.743 178.496C198.852 184.63 191.911 208.688 190.072 218.809Z" fill="#C70B2C"/>
<path d="M185.483 178.52L191.818 224.246C191.818 224.246 203.386 225.681 207.11 224.761C207.11 224.761 208.092 215.592 207.825 205.473C207.558 195.355 210.116 178.396 207.242 176.526C204.366 174.656 185.483 178.52 185.483 178.52Z" fill="#E4163A"/>
<path d="M229.727 123.392C229.762 123.244 229.782 123.108 229.788 122.993C229.831 122.153 229.766 120.515 229.573 119.697C229.38 118.88 226.358 117.262 225.556 117.428C224.754 117.596 224.774 120.02 224.637 120.96C224.504 121.888 226.392 124.592 226.435 124.654C226.302 125.35 225.015 131.998 223.567 136.868C223.186 138.15 222.794 139.308 222.41 140.201C221.938 141.3 210.633 135.296 202.557 131.222C202.537 131.212 202.518 131.203 202.499 131.193C200.608 130.241 198.432 131.835 198.781 133.916L199.719 139.521C201.323 142.411 218.861 150.243 228.061 147.484C228.061 147.484 230.366 144.438 230.591 138.848C230.752 134.843 230.627 129.595 229.727 123.392Z" fill="#FFB27D"/>
<path d="M185.768 107.491C185.768 107.491 188.496 107.281 191.714 105.889C194.326 104.758 197.622 106.004 198.692 106.564C198.663 106.393 198.594 106.158 198.431 105.923C198.431 105.923 198.912 106.262 198.982 106.736C199.032 106.772 199.055 106.796 199.042 106.806C199.042 106.806 199.587 106.707 199.937 106.864C199.937 106.864 199.693 106.828 199.604 106.985C199.595 107.001 199.582 107.016 199.566 107.028C203.64 108.988 204.016 115.401 202.705 116.886C201.127 118.672 199.236 122.691 199.236 122.691C199.236 122.691 198.547 121.74 198.833 120.171C199.121 118.6 197.758 118.6 196.036 117.886C194.315 117.172 195.75 115.172 194.243 113.958C192.737 112.744 188.965 113.63 187.287 112.529C185.03 111.04 185.768 107.699 185.768 107.491Z" fill="#233862"/>
<path d="M171.717 132.731C173.293 128.86 175.226 125.71 176.351 124.027C173.07 122.248 169.767 120.382 169.458 119.923C168.828 118.99 166.124 105.307 166.124 105.307C166.124 105.307 165.474 103.505 162.59 104.803C162.59 104.803 162.638 121.496 162.951 123.363C163.138 124.481 167.782 129.027 171.717 132.731Z" fill="#FFB27D"/>
<path d="M208.689 144.806C210.884 145.692 213.305 146.513 215.752 147.14C215.264 143.894 215.76 140.19 216.247 137.593C212.502 135.467 207.719 132.187 203.532 130.075C203.505 130.068 203.477 130.062 203.45 130.057C202.991 129.959 202.537 129.95 202.102 130.015C201.265 130.142 200.423 129.833 199.911 129.163L199.896 129.143C199.896 130.78 196.394 132.195 193.54 132.009C191.135 131.852 190.041 129.782 190.041 128.796C189.777 128.935 189.459 128.923 189.207 128.763C188.596 128.372 187.139 127.708 184.221 127.628C183.49 127.607 182.782 127.379 182.179 126.967C180.971 126.143 178.764 124.691 176.484 123.454C176.485 123.455 176.212 123.836 176.214 123.838C175.089 125.523 172.988 129.015 171.412 132.886C174.048 135.367 176.67 137.319 177.109 137.756C178.203 138.846 178.715 143.265 178.715 143.267C178.715 143.271 178.715 143.278 178.715 143.283C178.677 173.673 174.471 176.443 177.316 178.604C177.335 178.649 177.363 178.668 177.401 178.667C177.401 178.667 180.565 181.534 188.916 181.481C194.168 181.449 198.442 180.867 201.618 180.211C205.891 179.329 208.175 178.31 208.175 178.31C208.273 178.308 208.349 178.076 208.407 177.657C208.67 177.356 208.826 176.96 208.808 176.528C208.787 175.923 208.898 175.156 208.823 174.292C208.704 172.929 208.607 171.603 208.524 170.308C208.394 163.934 207.955 155.513 207.671 151.968C207.534 150.251 207.356 145.663 208.689 144.806Z" fill="white"/>
<path d="M208.69 144.806C210.884 145.693 213.305 146.513 215.752 147.141C215.63 146.329 215.569 145.489 215.555 144.646C213.01 143.963 209.65 142.837 208.097 141.35C205.418 138.79 201.241 146.363 202.42 153.403C203.598 160.441 202.75 181.152 185.883 181.36C186.808 181.441 187.816 181.486 188.916 181.478C194.169 181.446 198.442 180.864 201.619 180.208C205.891 179.326 208.175 178.307 208.175 178.307C208.273 178.305 208.349 178.073 208.407 177.654C208.67 177.353 208.826 176.957 208.808 176.525C208.788 175.92 208.898 175.153 208.823 174.289C208.704 172.926 208.608 171.6 208.524 170.305C208.394 163.931 207.955 155.51 207.671 151.965C207.534 150.251 207.356 145.664 208.69 144.806Z" fill="#E7E7E7"/>
<path d="M262.915 74.3665H254.303V173.867H262.915V74.3665Z" fill="#A2C5F9"/>
<path d="M258.479 73.4702H255.302V177.662H258.479V73.4702Z" fill="#C7DCF9"/>
<path d="M311.182 0.897461H206.037V73.2063H311.182V0.897461Z" fill="#CAE0FC"/>
<path d="M206.037 73.2063H311.182V0.897461L206.037 73.2063Z" fill="#BBD9F9"/>
<path d="M234.086 18.4448V55.6576H283.131V18.4448H234.086ZM280.18 52.3584H237.038V21.7456H280.18V52.3584Z" fill="#B64C41"/>
<path d="M280.18 22.2174V52.3582H237.038V51.8862L234.086 53.915V55.6574H283.131V20.187L280.18 22.2174Z" fill="#AA413E"/>
<path d="M316.289 74.6223H311.183V0.897461L316.289 2.68626V74.6223Z" fill="#233862"/>
<path d="M316.288 74.6223H207.833L206.037 73.2063H316.288V74.6223Z" fill="#233862"/>
<path d="M275.798 56.4527H230.074C229.256 56.4527 228.593 55.7919 228.593 54.9759C228.593 54.1615 229.256 53.5007 230.074 53.5007H275.798C276.616 53.5007 277.281 54.1615 277.281 54.9759C277.281 55.7919 276.616 56.4527 275.798 56.4527Z" fill="#EE9849"/>
<path d="M263.324 56.4526V64.683H253.893L250.301 56.4526H263.324Z" fill="#E58638"/>
<path opacity="0.5" d="M271.053 89.6111H235.002L231.409 56.4526H274.647L271.053 89.6111Z" fill="#9ED9F0"/>
<path d="M243.371 85.571C243.257 85.571 243.141 85.5278 243.053 85.4398C242.878 85.2654 242.878 84.9822 243.053 84.8078L267.711 60.2526C267.886 60.0782 268.17 60.0782 268.345 60.2526C268.52 60.427 268.52 60.7102 268.345 60.8846L243.689 85.4398C243.601 85.5262 243.485 85.571 243.371 85.571Z" fill="white"/>
<path d="M236.252 84.7885C236.138 84.7885 236.022 84.7453 235.934 84.6573C235.759 84.4829 235.759 84.1997 235.934 84.0253L258.818 61.2365C258.993 61.0621 259.277 61.0621 259.452 61.2365C259.627 61.4109 259.627 61.6941 259.452 61.8685L236.569 84.6573C236.482 84.7437 236.368 84.7885 236.252 84.7885Z" fill="white"/>
<path d="M254.881 83.1442C254.766 83.1442 254.652 83.101 254.563 83.013C254.388 82.8386 254.388 82.5554 254.563 82.381L266.453 70.541C266.628 70.3666 266.912 70.3666 267.087 70.541C267.262 70.7154 267.262 70.9986 267.087 71.173L255.198 83.013C255.111 83.0994 254.996 83.1442 254.881 83.1442Z" fill="white"/>
<path d="M261.123 85.3358C261.009 85.3358 260.893 85.2926 260.805 85.2046L235.934 60.4366C235.759 60.2622 235.759 59.979 235.934 59.8046C236.109 59.6302 236.393 59.6302 236.569 59.8046L261.44 84.5726C261.615 84.747 261.615 85.0302 261.44 85.2046C261.353 85.2926 261.237 85.3358 261.123 85.3358Z" fill="white"/>
<path d="M269.949 84.4864C269.833 84.4864 269.719 84.4432 269.63 84.3552L250.823 65.6256C250.648 65.4512 250.648 65.168 250.823 64.9936C250.998 64.8192 251.282 64.8192 251.457 64.9936L270.265 83.7232C270.44 83.8976 270.44 84.1808 270.265 84.3552C270.178 84.4432 270.063 84.4864 269.949 84.4864Z" fill="white"/>
<path d="M250.236 84.1871C250.122 84.1871 250.006 84.1439 249.918 84.0559L235.934 70.1295C235.759 69.9551 235.759 69.6719 235.934 69.4975C236.109 69.3231 236.393 69.3231 236.569 69.4975L250.553 83.4239C250.728 83.5983 250.728 83.8815 250.553 84.0559C250.468 84.1423 250.352 84.1871 250.236 84.1871Z" fill="white"/>
<path d="M269.463 260.734H247.752V181.193C247.752 175.224 252.613 170.384 258.607 170.384C264.602 170.384 269.462 175.224 269.462 181.193V260.734H269.463Z" fill="#1C468A"/>
<path d="M253.665 179.931C253.665 175.28 257.128 171.437 261.626 170.811C260.669 170.536 259.656 170.385 258.609 170.385C252.614 170.385 247.754 175.225 247.754 181.195V260.736H253.665V179.931Z" fill="#365DA4"/>
<path d="M380.82 261.306H1.18036C0.88795 261.306 0.650166 261.067 0.650166 260.778V260.691C0.650166 260.4 0.889557 260.163 1.18036 260.163H380.82C381.112 260.163 381.35 260.402 381.35 260.691V260.778C381.35 261.067 381.11 261.306 380.82 261.306Z" fill="#13375B"/>
</svg>